<svg width="159" height="318" viewBox="0 0 159 318" fill="none" xmlns="http://www.w3.org/2000/svg">
<path d="M158.338 308.684C158.338 308.684 122.892 317.342 79.1687 317.342C35.4449 317.342 0 308.684 0 308.684C0 308.684 35.4449 300.026 79.1687 300.026C122.892 300.026 158.338 308.684 158.338 308.684Z" fill="#CBB59B"/>
<path d="M55.9707 304.745C56.3311 304.134 56.5941 303.294 56.144 302.425C54.8318 299.888 49.5882 291.089 48.8603 287.872C48.296 285.373 49.1258 281.573 49.5255 279.999L34.892 269.513C31.1165 272.436 24.8803 278.889 23.5812 280.244L55.9707 304.745Z" fill="#46689C"/>
<path d="M53.4708 307.931L21.0804 283.43L23.5812 280.244L55.9707 304.745L53.4708 307.931Z" fill="white"/>
<path d="M45.433 286.701L45.2797 286.761C44.9018 286.921 44.463 287.273 44.7076 287.725C44.8313 287.955 45.0751 288.099 45.3119 288.216C46.1304 288.619 47.0238 288.817 47.925 288.942C48.8941 289.079 49.932 289.216 50.882 288.901C51.8625 288.575 51.7301 287.477 50.8367 287.05C49.2912 286.312 47.0682 286.081 45.433 286.701Z" fill="white"/>
<path d="M46.5258 290.248L46.3734 290.309C45.9955 290.468 45.5567 290.82 45.8013 291.272C45.925 291.504 46.1679 291.646 46.4056 291.764C47.2241 292.166 48.1175 292.363 49.0187 292.49C49.9878 292.625 51.0257 292.764 51.9748 292.449C52.9561 292.124 52.8229 291.025 51.9304 290.598C50.3849 289.86 48.161 289.627 46.5258 290.248Z" fill="white"/>
<path d="M48.6407 293.641L48.4874 293.702C48.1113 293.862 47.6716 294.213 47.9154 294.666C48.0399 294.896 48.2828 295.039 48.5214 295.156C49.3399 295.56 50.2315 295.756 51.1336 295.882C52.1027 296.018 53.1398 296.156 54.0897 295.842C55.071 295.516 54.9387 294.418 54.0444 293.991C52.5006 293.252 50.2759 293.021 48.6407 293.641Z" fill="white"/>
<path d="M93.0707 228.368L73.6742 207.929L30.7524 267.598L51.7597 283.549L93.0707 228.368Z" fill="#6A262D"/>
<path d="M106.044 156.781L78.31 155.579C79.0849 170.588 80.0785 197.706 77.4767 203.243C77.3992 203.409 76.8219 204.282 75.8789 205.674L97.6977 226.746C97.6977 226.746 106.393 213.804 107.59 208.829C110.636 196.173 105.997 159.306 106.044 156.781Z" fill="#6A262D"/>
<path d="M52.1445 155.977C52.1445 155.977 73.8919 217.419 79.206 231.933L83.8984 292.753L107.364 288.931L107.089 281.981L104.782 222.723L86.6333 157.317L59.1965 156.256L52.1445 155.977Z" fill="#864549"/>
<path d="M101.635 231.208C100.038 233.974 96.8828 233.745 94.51 230.976C93.2388 229.494 92.2244 227.689 91.8473 225.69C91.4703 223.691 91.7838 221.489 92.9114 219.878C94.0399 218.267 96.0304 217.371 97.8093 217.909C99.9173 218.545 101.235 220.879 101.935 223.171C102.509 225.044 102.812 227.071 102.427 228.997C102.251 229.876 101.978 230.612 101.635 231.208Z" fill="#9C5B61"/>
<path d="M126.806 302.725C126.654 302.033 126.274 301.238 125.347 300.89C122.64 299.872 112.74 296.799 109.999 294.889C107.872 293.407 105.886 290.04 105.105 288.608L87.1026 290.47C86.3085 295.127 86.11 304.026 86.0752 305.888L126.806 302.725Z" fill="#46689C"/>
<path d="M127.136 306.738L86.4061 309.9L86.0752 305.888L126.806 302.725L127.136 306.738Z" fill="white"/>
<path d="M106.662 296.28L106.59 296.425C106.421 296.793 106.336 297.343 106.826 297.518C107.076 297.607 107.354 297.553 107.61 297.483C108.492 297.243 109.287 296.801 110.04 296.3C110.85 295.762 111.713 295.181 112.199 294.322C112.704 293.433 111.853 292.706 110.9 292.978C109.252 293.448 107.447 294.741 106.662 296.28Z" fill="white"/>
<path d="M109.898 298.191L109.827 298.337C109.656 298.704 109.573 299.254 110.062 299.429C110.312 299.519 110.591 299.465 110.847 299.395C111.728 299.155 112.523 298.713 113.277 298.213C114.086 297.675 114.95 297.094 115.435 296.233C115.94 295.345 115.09 294.618 114.136 294.89C112.488 295.359 110.684 296.654 109.898 298.191Z" fill="white"/>
<path d="M113.785 299.316L113.714 299.461C113.543 299.828 113.46 300.379 113.949 300.553C114.199 300.643 114.477 300.589 114.733 300.519C115.614 300.279 116.409 299.837 117.163 299.337C117.973 298.799 118.836 298.218 119.322 297.359C119.826 296.47 118.977 295.742 118.023 296.014C116.375 296.484 114.571 297.778 113.785 299.316Z" fill="white"/>
<path d="M52.1445 155.977C52.1445 155.977 73.8919 217.419 79.206 231.933L83.8984 292.753L107.364 288.931L107.089 281.981L88.7387 283.073C88.7387 283.073 84.8631 233.71 83.7242 228.419C82.6846 223.597 62.723 166.372 59.1965 156.256L52.1445 155.977Z" fill="#6A262D"/>
<path d="M102.598 60.3365C102.598 60.3365 110.601 64.6405 113 67.8091C115.399 70.9777 121.825 96.7462 121.825 96.7462C121.825 96.7462 133.471 113.521 134.275 117.147C135.077 120.775 130.259 135.334 126.643 136.689C123.03 138.044 102.598 133.64 102.598 133.64L94.9871 96.7462L102.598 60.3365Z" fill="#F1435B"/>
<path d="M64.961 56.6124L49.933 60.8921C49.933 60.8921 42.2096 120.165 42.2096 123.783C42.2096 127.401 44.6372 138.846 44.6372 138.846C44.6372 138.846 40.1016 151.497 42.2096 153.906C44.3168 156.316 67.7882 162.596 87.9796 162.167C108.17 161.737 112.952 153.991 112.991 152.551C113.061 149.84 108.225 141.319 108.225 141.319C108.225 141.319 113.253 133.125 112.991 129.81C112.728 126.497 102.598 60.3365 102.598 60.3365L94.2001 58.8006L64.961 56.6124Z" fill="#F1435B"/>
<path d="M102.448 69.7726L104.356 93.7596L107.364 91.6341L102.448 69.7726Z" fill="#EF2D2E"/>
<path d="M94.2001 58.8005C92.0869 62.5359 88.2513 67.2344 82.0735 67.7664C74.0209 68.4682 67.514 60.3556 64.961 56.6123C68.6546 55.5814 72.1193 54.7786 72.1193 54.7786L85.977 55.3785C85.977 55.3785 90.2949 57.0181 94.2001 58.8005Z" fill="#F68672"/>
<path d="M87.0331 60.023L82.245 63.0428C82.245 63.0428 73.9983 57.895 72.1157 54.7751L72.0086 53.5753L71.6081 46.4022L86.1363 42.0459C86.1363 42.0459 85.8785 44.6137 85.7819 47.8911C85.6565 52.0428 85.7923 57.3177 87.0331 60.023Z" fill="#F68672"/>
<path d="M85.7819 47.8911C81.9646 49.9591 75.078 53.6354 73.9129 54.022C73.2834 54.2222 72.6121 53.9654 72.0086 53.5753L71.6081 46.4022L86.1363 42.0459C86.1363 42.0459 85.8785 44.6137 85.7819 47.8911Z" fill="#F36269"/>
<path d="M89.2909 40.7564C89.2909 40.7564 88.8965 41.7507 87.2743 43.0655H87.2717C86.9408 43.3355 86.5542 43.6193 86.1119 43.9102C84.42 45.016 68.7713 50.9335 66.4185 50.5155C64.0649 50.0967 62.1867 41.8665 62.1005 41.0063C61.5677 35.7253 60.178 19.4165 60.178 19.4165C66.7825 1.9966 87.2151 12.0518 89.5068 13.8899C91.7986 15.728 89.2909 40.7564 89.2909 40.7564Z" fill="#F68672"/>
<path d="M87.2718 43.0655C86.9409 43.3355 86.5543 43.6193 86.112 43.9102C84.4202 45.016 68.7714 50.9335 66.4187 50.5155C64.0651 50.0967 62.1869 41.8665 62.1007 41.0063C63.4198 44.6424 64.8722 49.6544 66.5544 49.569C69.09 49.4419 85.3631 43.9659 87.2718 43.0655Z" fill="#F9AA7F"/>
<path d="M61.8271 24.5668C61.8271 24.5668 64.3775 20.5815 66.0606 21.9642C67.7446 23.3469 67.0471 23.5559 67.0471 23.5559L61.8271 24.5668Z" fill="#F46F2E"/>
<path d="M84.0735 20.7957C84.0735 20.7957 78.129 15.4877 76.277 17.8788C75.1955 19.2745 76.1647 20.0077 76.1647 20.0077L84.0735 20.7957Z" fill="#F46F2E"/>
<path d="M63.5171 29.3637C63.464 30.594 64.0422 31.6189 64.8084 31.652C65.5747 31.6851 66.2382 30.7142 66.2922 29.4838C66.3453 28.2535 65.7671 27.2286 65.0009 27.1956C64.2346 27.1625 63.5702 28.1325 63.5171 29.3637Z" fill="#121414"/>
<path d="M62.373 28.2309C62.373 28.2309 62.831 28.9092 63.6155 29.2671C64.4001 29.6241 65.2133 29.5257 65.2133 29.5257C65.2133 29.5257 64.7536 28.8474 63.9699 28.4904C63.1854 28.1325 62.373 28.2309 62.373 28.2309Z" fill="white"/>
<path d="M80.567 27.5996C80.5025 29.0938 79.6954 30.2737 78.7645 30.2336C77.8337 30.1927 77.1319 28.9484 77.1964 27.4534C77.2608 25.9583 78.068 24.7793 78.9997 24.8194C79.9305 24.8603 80.6323 26.1046 80.567 27.5996Z" fill="#121414"/>
<path d="M82.0718 26.3492C82.0718 26.3492 81.4448 27.1216 80.4583 27.4725C79.4717 27.8225 78.4983 27.6179 78.4983 27.6179C78.4983 27.6179 79.1243 26.8447 80.1117 26.4947C81.0983 26.1446 82.0718 26.3492 82.0718 26.3492Z" fill="white"/>
<path d="M76.8035 42.6581C75.3781 43.298 73.6698 43.2745 72.2635 42.5945C72.7302 43.3407 73.4085 43.7987 74.288 43.8039C75.1683 43.8083 76.1818 43.2815 76.8035 42.6581Z" fill="#F14568"/>
<path d="M64.5907 36.246C64.3199 36.8825 62.9198 36.8973 61.4622 36.2782C60.0037 35.6591 59.0416 34.6421 59.3115 34.0047C59.5823 33.3682 60.9824 33.3543 62.4409 33.9734C63.8985 34.5916 64.8607 35.6095 64.5907 36.246Z" fill="#F36269"/>
<path d="M83.3619 34.0343C83.5726 35.0209 81.9112 36.212 79.6525 36.6944C77.3921 37.1759 75.3894 36.7667 75.1787 35.7801C74.9689 34.7927 76.6294 33.6024 78.8898 33.12C81.1493 32.6377 83.152 33.0478 83.3619 34.0343Z" fill="#F36269"/>
<path d="M80.2737 38.415C80.2737 38.415 80.1718 38.543 79.9933 38.765C79.8148 38.9949 79.5222 39.2996 79.1252 39.6418C78.3398 40.3288 77.0433 41.1029 75.4472 41.4338C73.8503 41.7594 72.3552 41.5609 71.3617 41.2405C70.8628 41.082 70.4736 40.9174 70.2176 40.7773C69.9659 40.6432 69.8214 40.5657 69.8214 40.5657C69.8214 40.5657 69.9807 40.6023 70.2576 40.6658C70.5345 40.7381 70.9429 40.8086 71.441 40.8687C72.4397 40.9949 73.8207 40.9906 75.2948 40.6911C76.7672 40.3837 78.0376 39.843 78.9057 39.3327C79.3394 39.0802 79.6877 38.8538 79.9123 38.6788C80.1422 38.5108 80.2737 38.415 80.2737 38.415Z" fill="#F14568"/>
<path d="M73.9563 34.6717C72.2636 35.882 69.8447 35.9726 68.0667 34.8911C68.2922 36.3139 69.6392 37.5329 71.0794 37.4885C72.5196 37.4441 73.8187 36.1067 73.9563 34.6717Z" fill="#F36269"/>
<path d="M70.6581 37.0906C70.2697 37.0018 69.8152 36.8346 69.3903 36.5604C68.9654 36.2861 68.6049 35.8986 68.5256 35.4371C68.4351 34.9835 68.678 34.609 69.0829 34.3409C69.3598 34.1632 69.6663 34.0814 69.9632 34.0526C70.0886 34.0405 70.2018 34.037 70.3124 34.0448C70.3254 33.9012 70.3289 33.7444 70.3368 33.5659C70.3524 32.8162 70.3106 31.8105 70.1069 30.6977C69.7203 28.5435 68.8722 26.9283 68.7686 26.742C68.7668 26.9553 68.8191 28.7612 69.2039 30.8579C69.3798 31.8654 69.608 32.7683 69.8021 33.4754C69.4713 33.4414 69.1047 33.4806 68.7285 33.6521C68.4124 33.7897 68.1068 34.0065 67.8682 34.3478C67.6297 34.7005 67.5382 35.1681 67.6244 35.5869C67.769 36.4533 68.4516 36.9957 69.015 37.2491C69.601 37.506 70.1713 37.5809 70.6258 37.5452C71.0908 37.5234 71.4461 37.4154 71.6751 37.3196C71.8449 37.2474 71.9563 37.1873 72.0051 37.162C71.9015 37.1786 71.3738 37.2456 70.6581 37.0906Z" fill="#F14568"/>
<path d="M96.2845 24.2934C97.1543 25.2852 97.5365 26.7001 97.271 27.9958C97.1552 28.5513 96.9558 29.0955 96.6667 29.5779C96.2862 30.2397 95.7429 30.7943 95.0498 31.1243C94.8695 30.2623 94.4925 29.1068 94.1433 28.6558C92.8886 28.0489 91.5198 28.3241 90.5463 29.321C89.5659 30.3163 89.3195 31.9472 89.9438 33.1975C88.8536 32.4548 88.1283 31.2096 88.0012 29.8975C87.7582 30.6733 87.5153 31.4421 87.2724 32.211C86.0377 29.1922 86.5827 25.5055 88.6612 22.983C87.8706 23.0492 87.0808 23.1066 86.2989 23.1737C87.383 22.902 88.1135 21.4932 87.847 20.3264C87.5284 18.9637 86.3398 17.9824 85.1312 17.2684C83.9314 16.5552 82.6079 15.9779 81.6736 14.9331C81.6013 15.4329 81.5386 15.9239 81.4742 16.4237C80.2464 15.9684 79.3357 14.7641 79.2242 13.4615C78.1819 15.6862 76.0643 17.3781 73.655 17.9101C73.6689 16.9897 73.3459 15.9536 73.352 15.0332C73.2449 16.5526 72.4621 18.0006 71.2657 18.9288C70.0615 19.857 68.4533 20.2471 66.9573 19.965C67.4658 19.8196 67.593 19.2136 67.566 18.6929C66.3835 20.4509 64.3895 21.6377 62.278 21.8388C60.1682 22.0408 57.9827 21.2511 56.4894 19.7543C58.0341 20.4404 60.0855 19.298 60.3171 17.6166C60.3763 17.2344 60.3424 16.8478 60.2666 16.4673C58.5513 16.6275 56.7828 16.274 55.2704 15.4303C55.596 15.452 55.9164 15.3989 56.2151 15.2779C56.9396 14.9914 57.5369 14.3392 57.8695 13.6165C58.3414 12.5899 58.4163 11.4458 58.6149 10.3321C58.8047 9.22628 59.1652 8.06908 60.0333 7.35334C60.3032 7.13043 60.6367 6.97718 60.9832 6.89185C60.0245 6.197 59.5195 4.91094 59.5674 3.04496C60.9867 4.11944 63.0234 3.88957 64.6542 3.17295C66.2842 2.45721 67.7157 1.32091 69.3692 0.647831C71.8247 -0.343063 74.6981 -0.176762 77.0674 1.00656C77.548 0.742729 78.0522 0.521572 78.5764 0.384869C80.3396 -0.0835838 82.3022 0.211594 83.8434 1.19117C86.7456 0.504158 89.7809 1.19726 91.8054 3.38715C93.829 5.58488 94.5569 8.89193 93.6461 11.7331C94.4193 11.2725 95.2021 10.8041 95.9762 10.3356C96.3802 11.4501 96.0877 12.7771 95.264 13.6209C96.8008 13.3527 98.4587 13.9352 99.4792 15.1098C98.6781 15.243 97.8683 15.3754 97.0672 15.5077C98.6859 16.4072 99.6925 18.3019 99.5288 20.154C99.3651 21.9982 98.0355 23.6909 96.2845 24.2934Z" fill="#F35E23"/>
<path d="M99.5288 20.154C99.4322 21.2137 98.9533 22.2316 98.2323 23.0126C97.6881 23.5916 97.0237 24.0401 96.2845 24.2934C97.1544 25.2852 97.5366 26.7001 97.271 27.9958C97.1552 28.5513 96.9558 29.0955 96.6667 29.5779C95.0924 28.9823 93.809 27.4856 93.8072 25.7772C92.94 24.9352 92.4994 23.6857 92.6526 22.4858C91.8698 22.9621 91.2987 23.7666 91.101 24.6548C91.2786 22.0992 91.465 19.5366 91.6435 16.9732C90.9478 17.5714 90.2433 18.1687 89.5476 18.7669C90.5533 16.4151 89.3456 13.364 87.0042 12.3331C86.9607 12.9339 86.9093 13.5268 86.8675 14.1276C84.8282 13.6461 83.0972 12.0466 82.4538 10.0587C81.9766 11.0096 81.509 11.9525 81.0327 12.8947C80.465 11.8986 79.8973 10.8946 79.3287 9.88978C77.9582 10.986 76.5876 12.0823 75.2162 13.1873C74.8435 12.1328 74.47 11.0783 74.0974 10.0317C73.7656 12.6474 71.8143 14.9827 69.2918 15.7698C69.2361 14.9461 69.1707 14.1146 69.115 13.2917C67.9979 15.688 65.3482 17.2989 62.6986 17.1752C63.1409 16.0476 63.5754 14.9104 64.0099 13.782C61.8192 15.4372 58.8561 15.9875 56.2151 15.2779C56.9396 14.9914 57.5369 14.3392 57.8695 13.6165C58.1656 12.9757 58.304 12.2956 58.4181 11.5964C58.486 11.1802 58.5374 10.7553 58.6149 10.3321C58.8047 9.22629 59.1652 8.06909 60.0333 7.35335C60.3032 7.13044 60.6367 6.97719 60.9832 6.89186C60.0246 6.19701 59.5196 4.91095 59.5675 3.04497C60.9867 4.11945 63.0234 3.88958 64.6543 3.17296C66.2843 2.45722 67.7157 1.32092 69.3693 0.64784C71.8247 -0.343052 74.6982 -0.176754 77.0674 1.00657C77.5481 0.742739 78.0522 0.521584 78.5764 0.384878C80.3396 -0.0835762 82.3022 0.211603 83.8434 1.19118C86.7456 0.504169 89.781 1.19727 91.8054 3.38716C93.829 5.58489 94.5569 8.89194 93.6461 11.7331C94.4194 11.2725 95.2022 10.8041 95.9762 10.3356C96.3803 11.4501 96.0877 12.7771 95.264 13.6209C96.8008 13.3527 98.4587 13.9352 99.4792 15.1098C98.6781 15.2431 97.8683 15.3754 97.0673 15.5077C98.686 16.4072 99.6925 18.3019 99.5288 20.154Z" fill="#F46F2E"/>
<path d="M99.5289 20.154C99.4322 21.2137 98.9533 22.2316 98.2323 23.0126C96.4081 22.0122 95.2449 19.8762 95.4521 17.7917C95.1108 18.3124 94.7703 18.834 94.4211 19.3547C94.3419 17.9023 94.2714 16.4499 94.1913 14.9984C93.567 15.6915 92.933 16.3837 92.3096 17.0777C92.2896 14.6144 91.4163 12.1555 89.8759 10.2294C89.2447 10.6717 88.6064 11.1045 87.976 11.5459C88.7126 10.2042 89.4806 8.72218 89.1854 7.22713C88.9434 6.0351 87.9821 5.02156 86.8057 4.72029C85.6302 4.41815 84.2963 4.83784 83.5109 5.76604C83.5283 4.61145 82.6375 3.50909 81.4995 3.29228C80.3701 3.06763 79.1259 3.75029 78.7036 4.82129C77.1902 3.78424 75.0578 4.09335 73.5079 5.08163C71.9571 6.06992 70.86 7.61372 69.7986 9.1079C69.6523 8.03777 69.506 6.9598 69.3606 5.88183C68.6248 8.54627 66.0579 10.5881 63.2968 10.7022C63.8889 9.8071 64.4723 8.90242 65.0644 8.0073C62.7962 9.11487 60.5836 10.3086 58.4181 11.5965C58.486 11.1802 58.5374 10.7553 58.6149 10.3322C58.8047 9.22632 59.1652 8.06912 60.0333 7.35338C60.3033 7.13048 60.6367 6.97722 60.9833 6.89189C60.0246 6.19705 59.5196 4.91098 59.5675 3.045C60.9868 4.11949 63.0234 3.88961 64.6543 3.173C66.2843 2.45726 67.7158 1.32095 69.3693 0.647875C71.8248 -0.343018 74.6982 -0.17672 77.0675 1.00661C77.5481 0.742773 78.0523 0.521616 78.5764 0.384912C80.3397 -0.0835419 82.3023 0.211637 83.8435 1.19121C86.7456 0.504204 89.781 1.1973 91.8054 3.38719C93.829 5.58492 94.557 8.89197 93.6462 11.7332C94.4194 11.2726 95.2022 10.8041 95.9763 10.3356C96.3803 11.4502 96.0877 12.7772 95.264 13.6209C96.8009 13.3527 98.4587 13.9353 99.4792 15.1099C98.6782 15.2431 97.8684 15.3754 97.0673 15.5078C98.686 16.4072 99.6926 18.302 99.5289 20.154Z" fill="#F68640"/>
<path d="M87.0034 41.2832C90.1772 41.1717 92.563 39.3946 93.8639 37.876C94.1565 37.5338 94.3942 37.2047 94.5736 36.9112C95.5479 35.3117 96.0538 29.6389 93.7856 28.2178C92.1947 27.2226 90.9496 28.5121 90.3479 29.375V29.3785C90.091 29.7451 89.95 30.0342 89.95 30.0342L87.0034 41.2832Z" fill="#F9AA7F"/>
<path d="M87.0034 41.2832C90.1772 41.1717 92.563 39.3946 93.8639 37.876C93.978 37.7201 94.0772 37.5721 94.1634 37.4302C95.1378 35.8306 95.6437 30.1587 93.3737 28.7385C92.0868 27.9314 91.0245 28.6236 90.3479 29.375V29.3785C90.091 29.7451 89.95 30.0342 89.95 30.0342L87.0034 41.2832Z" fill="#F68672"/>
<path d="M94.3238 32.7639C94.4205 33.2237 94.3264 33.6939 94.1575 34.1362C93.4391 36.0152 91.4713 37.3884 89.5896 38.6605C90.1782 37.7593 90.4264 36.724 90.3576 35.7018C90.3341 35.3456 90.2732 34.9904 90.2845 34.6351C90.3332 33.2045 93.7509 30.0464 94.3238 32.7639Z" fill="#F36269"/>
<path d="M88.65 39.163L88.7562 39.109C88.8232 39.0716 88.9321 39.0237 89.0566 38.9462C89.3083 38.7938 89.6574 38.5465 89.9927 38.173C90.3253 37.8003 90.6353 37.2961 90.7972 36.691C90.947 36.0867 90.9522 35.3753 90.6544 34.677C90.6239 34.589 90.5778 34.5046 90.5334 34.421L90.4994 34.3583L90.4951 34.3513L90.496 34.3531L90.4942 34.3522H90.4933L90.4994 34.3417L90.5316 34.2886L90.5978 34.1824L90.7337 33.976C90.9183 33.7035 91.1159 33.4492 91.317 33.2141C91.519 32.9782 91.728 32.7622 91.9318 32.5663C92.139 32.3713 92.3375 32.1884 92.5326 32.0543C92.7267 31.9202 92.9383 31.8358 93.1334 31.8192C93.3302 31.8062 93.5121 31.8575 93.6323 31.9246C93.7559 31.9925 93.8213 32.0761 93.8474 32.137L93.8752 32.2337L93.8744 32.1318C93.8648 32.0648 93.8178 31.9629 93.6968 31.8645C93.5775 31.7696 93.3868 31.6756 93.129 31.6581C92.8722 31.6451 92.5909 31.7191 92.3376 31.848C92.0816 31.9777 91.8499 32.1432 91.6053 32.326C91.3632 32.5106 91.1159 32.7196 90.8764 32.9538C90.6379 33.188 90.4054 33.4466 90.1938 33.7287L90.0371 33.9447L89.9622 34.0561L89.862 34.2129L89.7933 34.3235L89.8507 34.4401L89.9369 34.6056L90.0414 34.8276C90.3 35.4336 90.3366 36.058 90.2591 36.6126C90.1685 37.1673 89.9596 37.6549 89.714 38.038C89.4676 38.422 89.1933 38.7032 88.9878 38.8878C88.886 38.9801 88.7954 39.0437 88.7379 39.0916L88.65 39.163Z" fill="#D03B58"/>
<path d="M56.2483 212.768C56.2483 216.138 47.4949 217.412 41.5112 217.281C35.7626 217.405 27.4811 216.236 26.828 213.167C26.7889 213.036 26.7749 212.904 26.7749 212.768C26.7749 209.92 30.041 193.851 31.5761 186.457C32.0524 184.19 32.3598 182.734 32.3598 182.734H50.6565C50.6565 182.734 50.963 184.19 51.4402 186.457C52.9753 193.851 56.2483 209.92 56.2483 212.768Z" fill="#46689C"/>
<path d="M51.4402 186.457C50.963 184.19 50.6565 182.734 50.6565 182.734H47.4026H32.3598C32.3598 182.734 32.0524 184.19 31.5761 186.457H48.2472C50.0835 194.664 52.7419 207.307 52.2177 209.273C51.4793 212.089 38.6761 217.013 26.8281 213.167C27.4811 216.236 35.7626 217.405 41.5112 217.281C47.4949 217.412 56.2483 216.138 56.2483 212.768C56.2483 209.92 52.9753 193.851 51.4402 186.457Z" fill="#2C507E"/>
<path d="M52.2196 184.246H30.7996V179.357H52.2196V184.246Z" fill="#46689C"/>
<path d="M48.0225 202.29H31.7259V194.995H48.0225V202.29Z" fill="white"/>
<path d="M49.9329 168.217C49.4923 168.678 48.7252 168.784 48.1758 168.461C47.689 171.172 47.2014 173.885 46.713 176.597C46.5989 177.238 46.4003 177.985 45.7926 178.221C44.995 178.53 44.2313 177.722 43.7829 176.993C42.7241 175.271 42.0345 173.459 41.317 171.629H38.865C38.9921 172.759 39.8681 174.216 40.2974 174.969C40.7275 175.722 43.1229 182.712 43.2744 182.741C44.8652 183.063 46.5292 183.022 48.1026 182.62C47.6786 177.763 48.3064 172.814 49.9329 168.217Z" fill="#2AB57E"/>
<path d="M53.421 162.103C54.4284 160.69 53.9895 158.466 52.5215 157.54C51.0534 156.614 48.8574 157.177 48.0154 158.694C47.6872 157.199 46.193 156.048 44.6622 156.114C43.1315 156.181 41.7409 157.455 41.5433 158.974C40.5158 157.279 38.3111 156.398 36.399 156.916C34.486 157.436 33.0301 159.311 32.9997 161.294C31.9565 161.032 30.8028 161.046 29.8598 161.564C28.9168 162.082 28.2533 163.177 28.451 164.235C28.646 165.292 29.852 166.109 30.8551 165.72C29.9242 166.448 29.6404 167.884 30.2246 168.912C30.8089 169.939 32.1873 170.431 33.2896 170.004C31.859 171.991 32.9909 175.255 35.3437 175.931C37.7495 176.621 40.1423 174.511 40.2502 172.144L40.2903 172.218C40.3016 173.351 41.0121 174.415 41.9647 175.042C42.9652 175.698 44.186 175.936 45.3815 175.986C48.7251 176.127 54.0844 173.875 52.8071 169.676L52.8053 169.586C54.9108 169.387 57.2461 168.799 57.5143 166.237C57.7441 164.032 55.6283 161.894 53.421 162.103Z" fill="#2EAE7D"/>
<path d="M36.9634 203.18C36.8842 207.367 36.7962 211.157 36.7344 213.673C36.6909 215.42 35.5441 216.804 34.1422 216.804H20.5379C19.136 216.804 17.9901 215.42 17.9457 213.673C17.8839 211.157 17.796 207.367 17.7167 203.18C17.6192 198.083 17.5487 192.414 17.567 187.777C17.5931 182.8 17.7167 179.031 18.025 178.416C19.0655 176.405 22.6103 174.395 22.6103 174.395L23.4479 157.596H31.2235L32.0707 174.395C32.0707 174.395 35.6146 176.405 36.6551 178.416C36.9634 179.031 37.087 182.8 37.1045 187.777C37.1314 192.414 37.06 198.083 36.9634 203.18Z" fill="#C07E53"/>
<path d="M31.3229 159.008H23.3565C22.7758 159.008 22.3038 158.537 22.3038 157.955V157.049C22.3038 156.467 22.7758 155.996 23.3565 155.996H31.3229C31.9045 155.996 32.3756 156.467 32.3756 157.049V157.955C32.3756 158.537 31.9045 159.008 31.3229 159.008Z" fill="#363950"/>
<path d="M36.9634 203.18H17.7167C17.6192 198.083 17.5487 192.414 17.567 187.777H37.1045C37.1314 192.414 37.06 198.083 36.9634 203.18Z" fill="#F68640"/>
<path d="M80.7872 172.142V211.018H53.7005V172.142H80.7872Z" fill="#5B9FDC"/>
<path d="M62.7726 172.143H56.8507V169.752H62.7726V172.143Z" fill="#363950"/>
<path d="M80.7872 190.564V196.679L80.5956 196.75C78.1358 197.651 75.8162 199.217 74.538 201.51C73.6368 203.115 73.1387 205.159 71.5026 206.002C69.6044 206.98 67.3823 205.753 65.4066 204.929C61.7269 203.377 57.4838 203.28 53.7005 204.533V184.098C55.758 185.044 58.2439 185.184 60.4234 184.481C63.9943 183.331 66.7301 180.341 68.4045 176.992C69.1768 175.439 69.7585 173.816 70.2313 172.142H73.6568C73.3372 176.142 74.0651 180.225 75.8101 183.835C77.0239 186.366 78.7305 188.655 80.7872 190.564Z" fill="white"/>
<path d="M59.4048 190.307L60.5768 193.113L61.7497 190.307H63.627V195.68H62.0788V192.737L61.1593 195.158H59.9943L59.0748 192.737V195.68H57.5266V190.307H59.4048Z" fill="#363950"/>
<path d="M66.1746 190.307V195.68H64.3966V190.307H66.1746Z" fill="#363950"/>
<path d="M68.7205 190.307V194.2H70.9583V195.68H66.9425V190.307H68.7205Z" fill="#363950"/>
<path d="M74.8384 195.68L73.7195 193.833L73.1979 194.415V195.68H71.4207V190.307H73.1979V192.17L74.8001 190.307H76.8472L74.9316 192.467L76.9621 195.68H74.8384Z" fill="#363950"/>
<path d="M75.5472 214.648C75.9155 214.742 76.2986 214.832 76.6739 214.768C77.0483 214.703 77.4158 214.445 77.4906 214.071C77.5873 213.583 77.178 213.153 76.7888 212.842C75.5559 211.856 74.1636 211.072 72.6816 210.528C74.8854 210.766 77.1563 210.351 79.1346 209.348C79.7746 209.023 80.4764 208.317 80.102 207.704C79.8738 207.334 79.3731 207.261 78.9387 207.239C77.2477 207.158 75.5472 207.264 73.8788 207.557C75.2624 206.824 76.3152 205.493 76.7131 203.979C76.8202 203.57 76.8402 203.05 76.4867 202.818C76.1602 202.604 75.7257 202.78 75.3878 202.976C74.0486 203.75 72.8731 204.804 71.9597 206.051C72.3751 205.469 72.8052 204.847 72.8575 204.134C72.908 203.42 72.4108 202.617 71.695 202.616C71.136 202.616 70.6946 203.074 70.3506 203.514C69.2901 204.865 66.1581 209.482 67.2125 211.254C67.7114 212.091 70.059 212.741 70.934 213.104C72.4326 213.726 73.9755 214.241 75.5472 214.648Z" fill="#2EAE7D"/>
<path d="M64.6849 206C63.2011 205.907 61.734 206.296 60.3234 206.808C60.117 206.882 59.9028 206.968 59.6982 207.051C59.5449 207.104 59.403 207.164 59.255 207.221C55.7825 208.6 52.2099 210.186 48.8349 212.058C48.639 212.165 48.4413 212.276 48.2472 212.391C46.2131 213.539 44.2566 214.801 42.4377 216.183C39.8411 218.156 40.7946 219.519 43.6645 219.434C44.685 219.405 45.7064 219.351 46.7304 219.269C46.9515 219.259 47.1796 219.238 47.4034 219.223C49.6882 219.034 51.9739 218.732 54.2352 218.321C54.4537 218.278 54.6723 218.235 54.8909 218.192C56.0446 217.969 57.1931 217.718 58.3276 217.436C58.5444 217.383 58.7552 217.328 58.9703 217.267C60.2459 216.939 61.5093 216.57 62.7605 216.171C63.6931 215.869 64.643 215.532 65.5164 215.088C65.7393 214.977 65.957 214.861 66.1573 214.736C66.6301 214.457 67.075 214.137 67.479 213.767C68.7825 212.556 69.5984 210.656 69.0481 208.964C68.4743 207.184 66.5482 206.121 64.6849 206Z" fill="#F68640"/>
<path d="M46.1965 216.956C46.3715 217.722 46.5491 218.498 46.7303 219.269C46.9514 219.259 47.1795 219.238 47.4033 219.223C47.2196 218.42 47.0367 217.616 46.8539 216.812C46.7477 216.394 46.0999 216.535 46.1965 216.956Z" fill="#F46F2E"/>
<path d="M48.8349 212.058C48.639 212.165 48.4413 212.276 48.2472 212.391C48.7661 213.96 49.2128 215.555 49.5855 217.166C49.6813 217.585 50.3378 217.442 50.242 217.022C49.8563 215.346 49.3861 213.689 48.8349 212.058Z" fill="#F46F2E"/>
<path d="M52.7454 213.537C53.381 215.085 53.8773 216.688 54.2352 218.321C54.4537 218.278 54.6723 218.235 54.8909 218.192C54.5243 216.497 54.001 214.837 53.3392 213.232C53.1746 212.831 52.5817 213.136 52.7454 213.537Z" fill="#F46F2E"/>
<path d="M56.6245 210.792C57.4334 212.938 58.0028 215.17 58.3276 217.436C58.5444 217.384 58.7552 217.328 58.9702 217.267C58.635 214.954 58.0516 212.682 57.2218 210.482C57.0729 210.083 56.4756 210.393 56.6245 210.792Z" fill="#F46F2E"/>
<path d="M60.3234 206.808C60.117 206.882 59.9028 206.968 59.6982 207.05C60.5985 209.177 61.1497 211.437 61.3108 213.748C61.3439 214.168 62.0109 214.206 61.9804 213.772C61.8106 211.375 61.2481 209.02 60.3234 206.808Z" fill="#F46F2E"/>
<path d="M64.522 209.076C64.3479 209.172 64.3157 209.358 64.3731 209.529C65.0157 211.314 65.4067 213.192 65.5164 215.088C65.7393 214.977 65.957 214.861 66.1573 214.736C66.0119 212.856 65.6122 211.004 64.9748 209.224C64.9095 209.053 64.6657 209.001 64.522 209.076Z" fill="#F46F2E"/>
<path d="M48.6807 182.071C48.6214 181.695 48.5509 181.308 48.342 180.99C48.133 180.673 47.7499 180.437 47.3772 180.518C46.8913 180.624 46.6597 181.172 46.5291 181.652C46.1172 183.175 45.9518 184.766 46.045 186.341C45.3841 184.225 44.098 182.308 42.3905 180.894C41.8376 180.437 40.9094 180.074 40.4984 180.662C40.2485 181.018 40.3817 181.507 40.535 181.913C41.1332 183.498 41.9099 185.015 42.8433 186.427C41.6191 185.452 39.9795 185.016 38.4322 185.255C38.0142 185.32 37.5292 185.509 37.4578 185.925C37.3908 186.31 37.726 186.638 38.0394 186.87C39.2837 187.789 40.7196 188.446 42.2277 188.788C41.5276 188.639 40.7858 188.493 40.1101 188.729C39.4361 188.966 38.8971 189.744 39.1818 190.4C39.4048 190.912 40.0003 191.134 40.5419 191.275C42.2042 191.708 47.6872 192.741 48.8897 191.067C49.46 190.276 49.1195 187.864 49.1039 186.917C49.076 185.294 48.9349 183.674 48.6807 182.071Z" fill="#2EAE7D"/>
<path d="M45.0803 195.479C45.5862 196.878 46.5283 198.068 47.5601 199.157C47.7108 199.318 47.8744 199.479 48.0329 199.634C48.1426 199.755 48.2541 199.861 48.3647 199.973C51.0143 202.607 53.8938 205.252 56.9553 207.601C57.1303 207.738 57.3114 207.876 57.4943 208.007C59.3585 209.415 61.295 210.707 63.2881 211.824C66.1328 213.418 67.0027 212.001 65.781 209.402C65.3474 208.478 64.8912 207.562 64.407 206.656C64.3095 206.458 64.1998 206.257 64.0962 206.057C63.0112 204.037 61.8253 202.061 60.5453 200.152C60.4191 199.968 60.2928 199.785 60.1666 199.601C59.5013 198.632 58.8143 197.681 58.1021 196.751C57.968 196.573 57.833 196.401 57.6911 196.23C56.8822 195.189 56.0402 194.178 55.1755 193.19C54.5277 192.454 53.839 191.719 53.084 191.093C52.8925 190.934 52.7001 190.781 52.505 190.648C52.0609 190.325 51.5899 190.044 51.0901 189.82C49.4601 189.108 47.3929 189.118 46.059 190.297C44.6553 191.533 44.449 193.723 45.0803 195.479Z" fill="#F68640"/>
<path d="M62.4984 208.068C63.1323 207.602 63.7723 207.13 64.4071 206.656C64.3095 206.458 64.1998 206.257 64.0962 206.057C63.4327 206.545 62.7692 207.035 62.1048 207.522C61.7635 207.786 62.1519 208.324 62.4984 208.068Z" fill="#F46F2E"/>
<path d="M56.9552 207.601C57.1302 207.738 57.3113 207.876 57.4942 208.007C58.7263 206.905 60.0106 205.86 61.3394 204.876C61.6868 204.621 61.2932 204.075 60.9458 204.331C59.5631 205.353 58.2308 206.445 56.9552 207.601Z" fill="#F46F2E"/>
<path d="M56.7516 203.425C57.9193 202.225 59.1906 201.131 60.5454 200.152C60.4192 199.968 60.2929 199.785 60.1666 199.601C58.7578 200.613 57.4447 201.755 56.2361 203.002C55.934 203.312 56.4495 203.736 56.7516 203.425Z" fill="#F46F2E"/>
<path d="M52.689 200.961C54.3347 199.365 56.1536 197.952 58.1023 196.751C57.9682 196.573 57.8333 196.401 57.6914 196.23C55.7052 197.459 53.8531 198.9 52.1665 200.537C51.8609 200.833 52.3825 201.257 52.689 200.961Z" fill="#F46F2E"/>
<path d="M47.5601 199.157C47.7107 199.318 47.8744 199.48 48.0329 199.634C49.6228 197.961 51.4758 196.554 53.5316 195.485C53.9034 195.289 53.6726 194.661 53.286 194.862C51.1553 195.973 49.2197 197.428 47.5601 199.157Z" fill="#F46F2E"/>
<path d="M47.9668 194.404C48.1235 194.524 48.3073 194.48 48.4422 194.359C49.8232 193.058 51.3897 191.951 53.0841 191.093C52.8925 190.934 52.7001 190.781 52.5051 190.648C50.8394 191.529 49.3008 192.635 47.9206 193.929C47.7918 194.057 47.8397 194.302 47.9668 194.404Z" fill="#F46F2E"/>
<path d="M79.7006 197.967C79.7006 198.558 79.3 199.036 78.8055 199.036H77.502C77.0074 199.036 76.606 198.558 76.606 197.967V185.892C76.606 185.301 77.0074 184.822 77.502 184.822H78.8055C79.3 184.822 79.7006 185.301 79.7006 185.892V197.967ZM79.7006 215.734C79.7006 216.326 79.3 216.804 78.8055 216.804H77.502C77.0074 216.804 76.606 216.326 76.606 215.734V203.659C76.606 203.069 77.0074 202.59 77.502 202.59H78.8055C79.3 202.59 79.7006 203.069 79.7006 203.659V215.734ZM73.838 197.967C73.838 198.558 73.4365 199.036 72.9411 199.036H71.6385C71.1439 199.036 70.7434 198.558 70.7434 197.967V185.892C70.7434 185.301 71.1439 184.822 71.6385 184.822H72.9411C73.4365 184.822 73.838 185.301 73.838 185.892V197.967ZM73.838 215.734C73.838 216.326 73.4365 216.804 72.9411 216.804H71.6385C71.1439 216.804 70.7434 216.326 70.7434 215.734V203.659C70.7434 203.069 71.1439 202.59 71.6385 202.59H72.9411C73.4365 202.59 73.838 203.069 73.838 203.659V215.734ZM67.9736 197.967C67.9736 198.558 67.573 199.036 67.0784 199.036H65.7758C65.2812 199.036 64.8798 198.558 64.8798 197.967V185.892C64.8798 185.301 65.2812 184.822 65.7758 184.822H67.0784C67.573 184.822 67.9736 185.301 67.9736 185.892V197.967ZM67.9736 215.734C67.9736 216.326 67.573 216.804 67.0784 216.804H65.7758C65.2812 216.804 64.8798 216.326 64.8798 215.734V203.659C64.8798 203.069 65.2812 202.59 65.7758 202.59H67.0784C67.573 202.59 67.9736 203.069 67.9736 203.659V215.734ZM62.1109 197.967C62.1109 198.558 61.7095 199.036 61.2158 199.036H59.9123C59.4169 199.036 59.0163 198.558 59.0163 197.967V185.892C59.0163 185.301 59.4169 184.822 59.9123 184.822H61.2158C61.7095 184.822 62.1109 185.301 62.1109 185.892V197.967ZM62.1109 215.734C62.1109 216.326 61.7095 216.804 61.2158 216.804H59.9123C59.4169 216.804 59.0163 216.326 59.0163 215.734V203.659C59.0163 203.069 59.4169 202.59 59.9123 202.59H61.2158C61.7095 202.59 62.1109 203.069 62.1109 203.659V215.734ZM56.2483 197.967C56.2483 198.558 55.8469 199.036 55.3514 199.036H54.0488C53.5542 199.036 53.1528 198.558 53.1528 197.967V185.892C53.1528 185.301 53.5542 184.822 54.0488 184.822H55.3514C55.8469 184.822 56.2483 185.301 56.2483 185.892V197.967ZM56.2483 215.734C56.2483 216.326 55.8469 216.804 55.3514 216.804H54.0488C53.5542 216.804 53.1528 216.326 53.1528 215.734V203.659C53.1528 203.069 53.5542 202.59 54.0488 202.59H55.3514C55.8469 202.59 56.2483 203.069 56.2483 203.659V215.734ZM50.3839 197.967C50.3839 198.558 49.9834 199.036 49.4888 199.036H48.1853C47.6898 199.036 47.2902 198.558 47.2902 197.967V185.892C47.2902 185.301 47.6898 184.822 48.1853 184.822H49.4888C49.9834 184.822 50.3839 185.301 50.3839 185.892V197.967ZM50.3839 215.734C50.3839 216.326 49.9834 216.804 49.4888 216.804H48.1853C47.6898 216.804 47.2902 216.326 47.2902 215.734V203.659C47.2902 203.069 47.6898 202.59 48.1853 202.59H49.4888C49.9834 202.59 50.3839 203.069 50.3839 203.659V215.734ZM44.5213 197.967C44.5213 198.558 44.1199 199.036 43.6253 199.036H42.3218C41.8272 199.036 41.4267 198.558 41.4267 197.967V185.892C41.4267 185.301 41.8272 184.822 42.3218 184.822H43.6253C44.1199 184.822 44.5213 185.301 44.5213 185.892V197.967ZM44.5213 215.734C44.5213 216.326 44.1199 216.804 43.6253 216.804H42.3218C41.8272 216.804 41.4267 216.326 41.4267 215.734V203.659C41.4267 203.069 41.8272 202.59 42.3218 202.59H43.6253C44.1199 202.59 44.5213 203.069 44.5213 203.659V215.734ZM38.6569 197.967C38.6569 198.558 38.2563 199.036 37.7618 199.036H36.4591C35.9646 199.036 35.5632 198.558 35.5632 197.967V185.892C35.5632 185.301 35.9646 184.822 36.4591 184.822H37.7618C38.2563 184.822 38.6569 185.301 38.6569 185.892V197.967ZM38.6569 215.734C38.6569 216.326 38.2563 216.804 37.7618 216.804H36.4591C35.9646 216.804 35.5632 216.326 35.5632 215.734V203.659C35.5632 203.069 35.9646 202.59 36.4591 202.59H37.7618C38.2563 202.59 38.6569 203.069 38.6569 203.659V215.734ZM32.7942 197.967C32.7942 198.558 32.3928 199.036 31.8983 199.036H30.5956C30.1002 199.036 29.6997 198.558 29.6997 197.967V185.892C29.6997 185.301 30.1002 184.822 30.5956 184.822H31.8983C32.3928 184.822 32.7942 185.301 32.7942 185.892V197.967ZM32.7942 215.734C32.7942 216.326 32.3928 216.804 31.8983 216.804H30.5956C30.1002 216.804 29.6997 216.326 29.6997 215.734V203.659C29.6997 203.069 30.1002 202.59 30.5956 202.59H31.8983C32.3928 202.59 32.7942 203.069 32.7942 203.659V215.734ZM26.9307 197.967C26.9307 198.558 26.5302 199.036 26.0348 199.036H24.7321C24.2376 199.036 23.8362 198.558 23.8362 197.967V185.892C23.8362 185.301 24.2376 184.822 24.7321 184.822H26.0348C26.5302 184.822 26.9307 185.301 26.9307 185.892V197.967ZM26.9307 215.734C26.9307 216.326 26.5302 216.804 26.0348 216.804H24.7321C24.2376 216.804 23.8362 216.326 23.8362 215.734V203.659C23.8362 203.069 24.2376 202.59 24.7321 202.59H26.0348C26.5302 202.59 26.9307 203.069 26.9307 203.659V215.734ZM21.0672 197.967C21.0672 198.558 20.6667 199.036 20.1721 199.036H18.8686C18.374 199.036 17.9735 198.558 17.9735 197.967V185.892C17.9735 185.301 18.374 184.822 18.8686 184.822H20.1721C20.6667 184.822 21.0672 185.301 21.0672 185.892V197.967ZM21.0672 215.734C21.0672 216.326 20.6667 216.804 20.1721 216.804H18.8686C18.374 216.804 17.9735 216.326 17.9735 215.734V203.659C17.9735 203.069 18.374 202.59 18.8686 202.59H20.1721C20.6667 202.59 21.0672 203.069 21.0672 203.659V215.734ZM48.7277 181.031H14.023C14.023 181.031 15.377 218.505 15.8559 219.235C16.3348 219.963 40.4993 221.19 48.7277 221.178C56.991 221.166 81.2583 219.866 81.7364 219.136C82.2153 218.407 83.4316 181.031 83.4316 181.031H48.7277Z" fill="#DCDDDA"/>
<path d="M86.595 182.786H10.8605V175.928H86.595V182.786Z" fill="#BCBEBC"/>
<path d="M56.4607 179.282C55.28 179.282 54.465 177.613 54.876 176.043C55.469 173.786 56.1664 170.852 56.3397 168.962C56.6532 165.525 53.8895 157.94 53.8895 157.94H57.5178C57.5178 157.94 59.8844 166.141 59.8095 168.611C59.7556 170.391 58.6654 175.143 58.0612 177.662C57.8269 178.634 57.1843 179.282 56.4607 179.282Z" fill="#DCDDDA"/>
<path d="M66.6545 167.286C65.1925 168.043 61.1366 157.421 61.1366 157.421L57.9785 157.435L59.2585 162.032L57.7025 168.809C57.7025 168.809 56.3781 169.084 54.7368 169.325C54.533 169.357 54.324 169.384 54.1116 169.413C53.1302 169.546 52.0828 169.651 51.1685 169.671C51.0805 169.677 50.99 169.676 50.9046 169.68C50.4466 169.68 48.9908 169.444 48.8027 169.292L48.841 163.873C48.841 163.873 43.0759 159.12 42.6632 158.062C42.5012 157.642 44.5771 148.401 44.8374 147.38L49.602 146.2C49.602 146.2 58.3877 151.247 58.8701 151.556C60.6185 152.682 62.4175 154.018 63.5703 155.348C64.0614 155.911 64.4323 156.473 64.6326 157.018C66.0232 160.775 68.1138 166.53 66.6545 167.286Z" fill="#F68672"/>
<path d="M51.1684 169.671C51.0805 169.677 50.9899 169.676 50.9046 169.68C50.9342 169.457 50.9795 169.164 51.0291 168.811C51.1406 168.011 51.2738 166.927 51.3939 165.753C51.5045 164.577 51.535 163.511 51.4662 162.707C51.4479 162.504 51.4288 162.32 51.4149 162.158C51.3844 161.997 51.3608 161.857 51.3382 161.743C51.3008 161.51 51.279 161.375 51.279 161.375C51.279 161.375 51.3591 161.484 51.4975 161.693C51.5672 161.796 51.6508 161.926 51.744 162.077C51.8206 162.236 51.9059 162.415 51.9974 162.622C52.3491 163.437 52.6104 164.669 52.4876 165.96C52.3552 167.246 51.9338 168.309 51.555 169.023C51.414 169.286 51.2808 169.501 51.1684 169.671Z" fill="#D03B58"/>
<path d="M54.7366 169.325C54.5329 169.357 54.3239 169.384 54.1114 169.413L54.1288 169.273C54.2394 168.473 54.3718 167.39 54.4911 166.217C54.6043 165.039 54.6339 163.973 54.5659 163.168C54.5468 162.966 54.5311 162.785 54.5137 162.624C54.485 162.461 54.458 162.321 54.4397 162.207C54.4005 161.972 54.3779 161.841 54.3779 161.841C54.3779 161.841 54.4562 161.948 54.5964 162.155C54.6635 162.259 54.7505 162.388 54.8402 162.541C54.9195 162.697 55.0057 162.881 55.0962 163.083C55.4489 163.903 55.7092 165.136 55.5847 166.423C55.4645 167.617 55.0927 168.62 54.7366 169.325Z" fill="#D03B58"/>
<path d="M49.933 60.892C49.933 60.892 40.4394 64.6545 38.8651 66.4107C37.2899 68.1661 23.8363 115.554 23.8363 118.767C23.8363 121.98 23.8363 127.401 23.8363 127.401C23.8363 127.401 23.8363 143.695 24.8402 145.187C25.845 146.678 36.8842 154.308 36.8842 154.308C36.8842 154.308 37.1889 158.286 38.1929 159.008C39.1977 159.73 42.6632 158.062 42.6632 158.062C42.6632 158.062 48.8811 147.503 50.364 146.638C50.364 146.638 51.7763 143.465 51.7119 142.662C51.6465 141.858 47.5306 139.349 47.5306 139.349L44.7408 122.381C44.7408 122.381 53.0206 93.8684 53.8896 89.25C54.7594 84.6317 49.933 60.892 49.933 60.892Z" fill="#F1435B"/>
<path d="M45.5219 69.7726C45.5219 69.7726 52.4268 75.1938 53.995 79.0093C55.5623 82.8249 54.7003 93.7596 54.7003 93.7596C54.7003 93.7596 58.0961 82.0212 57.5319 78.6079C56.9677 75.1938 45.5219 69.7726 45.5219 69.7726Z" fill="#EF2D2E"/>
<path d="M51.7118 101.486L44.7408 122.381C44.7408 122.381 49.8146 131.467 50.1158 132.446C50.4162 133.425 48.2263 137.718 48.2263 137.718C48.2263 137.718 50.1158 138.997 50.7175 139.675C51.32 140.352 49.5882 144.72 49.5882 144.72L42.6632 158.062C42.6632 158.062 51.5751 146.702 51.7118 146.2C51.8477 145.7 53.4281 140.278 53.4281 139.374C53.4281 138.471 50.9047 136.738 50.9047 136.738C50.9047 136.738 53.0528 132.898 52.9013 132.07C52.7506 131.241 47.0282 121.603 47.0282 121.603L51.7118 101.486Z" fill="#EF2D2E"/>
<path d="M104.356 141.658C104.356 141.658 60.8641 144.468 59.0164 145.072C57.1679 145.673 102.749 152.701 102.749 152.701L76.9622 146.2L104.356 141.658Z" fill="#EF2D2E"/>
<path d="M116.985 131.246C116.874 131.339 116.768 131.424 116.65 131.511C115.645 132.268 114.554 132.943 113.406 133.505C111.13 134.625 108.64 135.306 106.154 135.323C105.503 135.331 104.857 135.297 104.214 135.198C103.688 135.138 103.171 135.03 102.649 134.89C99.8651 134.144 97.528 132.467 95.7239 130.259C95.312 129.76 94.9298 129.23 94.5771 128.67C93.3033 126.678 92.4055 124.389 91.9484 122.033C91.7333 120.914 91.6071 119.787 91.594 118.663C91.5897 118.473 91.5914 118.287 91.6001 118.108C91.6506 111.275 94.6964 104.797 98.1672 98.9134C103.196 90.4011 110.009 78.7917 119.437 74.458C121.815 73.367 124.455 73.2268 127.006 73.7867C128.003 74.0044 128.99 74.33 129.938 74.7454C130.42 74.9509 130.891 75.179 131.345 75.4385C131.883 75.7319 132.41 76.0489 132.913 76.4033C133.362 76.7158 133.794 77.0476 134.208 77.3968C134.634 77.7581 135.05 78.1438 135.434 78.5479C135.99 79.1156 136.499 79.7207 136.955 80.3564C137.325 80.8736 137.659 81.4047 137.94 81.9542C138.301 82.6159 138.59 83.2907 138.821 83.9908C140.915 90.4786 138.317 97.4793 135.365 103.615C132.637 109.31 129.571 114.832 126.201 120.171C123.625 124.254 120.795 128.295 116.985 131.246Z" fill="#20795A"/>
<path d="M91.9484 122.033C91.7333 120.914 91.6071 119.787 91.594 118.663C91.5897 118.473 91.5914 118.287 91.6001 118.108C91.7133 117.819 91.8274 117.529 91.9519 117.24C95.7605 108.145 101.152 99.5839 106.659 91.426C111.727 83.9238 118.185 76.5948 127.006 73.7867C128.003 74.0044 128.99 74.33 129.938 74.7454L129.794 74.7846C124.548 75.9261 119.924 78.8108 116.078 82.4975C112.295 86.1285 109.268 90.4377 106.44 94.8314C103.826 98.8803 101.267 102.97 98.882 107.157C96.1767 111.913 93.7256 116.867 91.9484 122.033Z" fill="#51C292"/>
<path d="M95.7236 130.259C95.3117 129.76 94.9295 129.23 94.5768 128.67C95.6531 126.202 96.718 123.735 97.7942 121.267C99.8605 116.519 101.64 111.449 104.396 107.044C107.06 102.797 110.671 99.2469 113.352 95.0056C115.994 90.8183 118.387 86.4994 121.896 82.9573C124.739 80.0874 128.005 77.7042 131.344 75.4385C131.883 75.732 132.409 76.0489 132.913 76.4033C128.784 79.1992 124.712 82.1318 121.452 85.9378C118.257 89.6637 116.1 94.1157 113.312 98.1263C110.478 102.209 106.877 105.688 104.589 110.142C102.289 114.62 100.455 119.381 98.4455 123.997C97.5391 126.09 96.6335 128.172 95.7236 130.259Z" fill="#51C292"/>
<path d="M106.154 135.323C105.503 135.331 104.857 135.297 104.214 135.198C106.273 132.219 108.111 129.09 109.793 125.879C114.167 117.525 117.455 108.693 121.153 100.043C124.59 92.0076 128.53 84.0936 134.208 77.3968C134.634 77.7581 135.049 78.1438 135.433 78.5479C132.339 82.2067 129.755 86.2608 127.515 90.4926C123.116 98.775 119.948 107.641 116.219 116.226C113.349 122.839 110.161 129.344 106.154 135.323Z" fill="#51C292"/>
<path d="M116.985 131.246C116.874 131.339 116.768 131.424 116.65 131.511C115.644 132.268 114.554 132.943 113.406 133.505C114.311 132.242 115.18 130.957 116.018 129.642C121.17 121.6 125.053 112.904 127.844 103.783C130.295 95.7762 132.356 87.4416 136.955 80.3564C137.325 80.8736 137.659 81.4048 137.94 81.9542C135.705 85.5826 134.081 89.5496 132.734 93.595C131.251 98.0262 130.059 102.546 128.6 106.988C127.143 111.442 125.402 115.801 123.353 120.017C121.471 123.889 119.34 127.64 116.985 131.246Z" fill="#51C292"/>
<path d="M119.706 111.423C119.067 112.581 122.45 118.326 121.425 116.571C120.4 114.816 114.001 110.188 112.921 111.213C111.839 112.238 117.448 122.125 117.448 122.125C117.448 122.125 111.35 115.466 109.666 117.854C109.116 118.634 109.508 120.215 110.276 121.985C108.248 121.242 106.473 121.012 106.442 122.477C106.367 125.927 115.051 130.085 115.051 130.085C125.592 133.838 127.062 116.146 127.062 116.146C127.062 116.146 120.344 110.265 119.706 111.423Z" fill="#F68672"/>
<path d="M45.0646 33.7931L32.2622 22.0287L28.1184 30.7752L45.0646 33.7931Z" fill="white"/>
<path d="M50.5582 32.4836L51.8451 21.636L45.878 22.4057L50.5582 32.4836Z" fill="white"/>
<path d="M44.5074 41.3955L32.9119 41.4137L33.4299 46.9089L44.5074 41.3955Z" fill="white"/>
</svg>
