<svg width="273" height="239" viewBox="0 0 273 239" fill="none" xmlns="http://www.w3.org/2000/svg">
<path d="M271.263 231.269C271.263 231.269 248.167 237.302 219.676 237.302C191.185 237.302 168.089 231.269 168.089 231.269C168.089 231.269 191.185 225.237 219.676 225.237C248.167 225.237 271.263 231.269 271.263 231.269Z" fill="#CBB59B"/>
<path d="M252.463 65.8286L263.732 66.5188C263.732 66.5188 268.762 41.3628 265.712 34.1516C265.253 33.0617 264.608 32.3841 263.732 32.2617C260.287 31.7846 257.397 40.7374 255.411 49.5163C253.541 57.7532 252.463 65.8286 252.463 65.8286Z" fill="#FAB663"/>
<path d="M258.796 42.387C260.671 41.0729 262.847 40.1917 265.108 39.8319C263.328 41.5803 261.288 42.5094 258.796 42.387Z" fill="#F7923D"/>
<path d="M258.122 48.7973C259.996 47.4832 262.173 46.602 264.433 46.2422C262.653 47.9898 260.614 48.919 258.122 48.7973Z" fill="#F7923D"/>
<path d="M257.391 55.4974C259.265 54.1826 261.442 53.3021 263.703 52.9415C261.923 54.6899 259.882 55.6191 257.391 55.4974Z" fill="#F7923D"/>
<path d="M255.411 49.5163C255.701 48.5488 255.972 47.5747 256.249 46.6072C257.081 43.7431 258.023 40.8466 259.758 38.4212C261.216 36.3963 263.318 34.7261 265.712 34.1516C265.253 33.0617 264.609 32.3841 263.732 32.2616C260.287 31.7845 257.397 40.7374 255.411 49.5163Z" fill="#F7923D"/>
<path d="M247.31 101.347L252.099 58.3541L266.996 59.604L262.456 101.347H247.31Z" fill="#C07E53"/>
<path d="M271.403 91.5051C271.403 94.078 264.723 95.0499 260.156 94.9503C255.769 95.0447 249.448 94.1524 248.949 91.809C248.92 91.7094 248.909 91.6098 248.909 91.5051C248.909 89.3313 251.402 77.0681 252.574 71.4247C252.938 69.6948 253.172 68.5827 253.172 68.5827H267.136C267.136 68.5827 267.37 69.6948 267.734 71.4247C268.906 77.0681 271.403 89.3313 271.403 91.5051Z" fill="#F04242"/>
<path d="M267.734 71.4247C267.371 69.6948 267.136 68.5827 267.136 68.5827H264.653H253.172C253.172 68.5827 252.938 69.6948 252.574 71.4247H265.298C266.698 77.6883 268.728 87.338 268.327 88.8379C267.764 90.9867 257.993 94.7453 248.949 91.809C249.449 94.1524 255.769 95.0447 260.156 94.9503C264.723 95.0499 271.403 94.078 271.403 91.5051C271.403 89.3313 268.906 77.0681 267.734 71.4247Z" fill="#EF2D2E"/>
<path d="M268.328 69.7376H251.981V66.0063H268.328V69.7376Z" fill="#F04242"/>
<path d="M265.127 83.5087H252.687V77.9413H265.127V83.5087Z" fill="white"/>
<path d="M181.242 71.2714L192.482 76.4812L197.563 64.8832L208.941 69.4219C208.941 69.4219 201.235 90.7419 197.103 91.4786C194.135 92.0081 179.329 80.8695 179.329 80.8695L181.242 71.2714Z" fill="#F68672"/>
<path d="M166.655 74.1745C166.843 74.4511 167.076 74.6797 167.34 74.878L167.348 74.8825C167.962 75.3603 168.745 75.6567 169.494 75.9237C170.333 76.2231 171.172 76.563 172.004 76.9103C172.707 77.1994 173.402 77.4899 174.097 77.7613C174.506 77.928 174.908 78.0762 175.316 78.2222L177.606 79.8489C177.606 79.8489 178.235 80.2279 179.329 80.8695L180.95 78.7959L180.942 78.7915L182.883 76.3086L183.958 74.9304L181.934 73.5485L180.108 72.3059C180.099 69.2973 179.704 66.1677 178.529 63.398C178.339 62.9416 178.112 62.4969 177.898 62.0545L177.895 62.0419C177.571 61.3996 177.268 60.7566 177.059 60.0716C176.675 58.79 176.69 57.4309 176.538 56.0969C176.514 55.8897 176.48 55.6788 176.441 55.4701C176.385 55.1184 176.281 54.7489 176.01 54.5255L175.968 54.499C175.614 54.2475 175.095 54.3242 174.74 54.583L174.592 54.7106C174.315 54.979 174.135 55.344 173.979 55.7017L173.93 55.8447C173.159 57.7849 173.057 59.9765 173.628 61.977C173.702 62.2351 173.79 62.5161 173.708 62.7639C173.63 62.9888 173.428 63.1532 173.23 63.2904C172.421 63.8331 171.457 64.0964 170.475 64.1708C169.99 64.2092 169.491 64.1989 168.996 64.1605L168.982 64.1583C168.376 64.1074 167.733 64.0285 167.201 64.2962C166.774 64.5182 166.51 64.9164 166.341 65.3794L166.312 65.4554C166.184 65.8175 166.121 66.2135 166.076 66.5829C166.051 66.7783 166.031 66.9723 166.021 67.1765C165.874 68.7126 165.867 70.2641 166.003 71.8045C166.07 72.6348 166.185 73.491 166.655 74.1745Z" fill="#F36269"/>
<path d="M176.007 54.524C176.283 54.7467 176.382 55.1177 176.444 55.4709C176.48 55.6788 176.511 55.8919 176.538 56.0999C176.689 57.4302 176.677 58.7877 177.059 60.0686C177.266 60.7566 177.572 61.4004 177.897 62.0434V62.0523C178.113 62.4962 178.338 62.9401 178.532 63.3973C179.703 66.1685 180.099 69.2958 180.106 72.3045L183.96 74.9319L182.885 76.3093L180.948 78.7988L179.329 80.8695L176.641 76.3337C177.069 73.4607 178.034 67.8122 177.512 64.232C177.418 63.5942 177.28 63.0286 177.081 62.5485C176.847 61.9962 176.59 61.4387 176.347 60.8776C175.874 59.7862 175.474 58.6764 175.504 57.5002L175.509 57.3144C175.514 56.6677 175.452 55.8897 174.955 55.6803C174.891 55.653 174.828 55.6353 174.756 55.6257C174.471 55.5933 174.208 55.7555 173.928 55.8455L173.978 55.7054C174.132 55.344 174.314 54.982 174.595 54.7113L174.74 54.5852C175.094 54.3235 175.614 54.2475 175.966 54.5019L176.007 54.524Z" fill="#F68672"/>
<path d="M172.409 70.239C172.378 71.8539 172.811 73.4585 173.52 74.909C172.485 73.7137 171.664 72.2787 171.457 70.7109C171.25 69.1425 171.733 67.4346 172.933 66.4037C173.151 66.2172 173.424 65.9863 173.681 65.92C173.693 66.4981 173.009 67.2975 172.814 67.8763C172.558 68.6366 172.424 69.4374 172.409 70.239Z" fill="#F14568"/>
<path d="M181.974 72.9512C181.916 75.4082 181.852 77.633 181.806 79.11C181.774 80.135 180.936 80.9477 179.91 80.9477H169.959C168.933 80.9477 168.096 80.135 168.063 79.11C168.017 77.633 167.953 75.4082 167.895 72.9512C167.824 69.958 167.773 66.6309 167.786 63.9091C167.805 60.9875 167.895 58.7752 168.121 58.4146C168.882 57.234 171.475 56.0542 171.475 56.0542L172.088 52.6429H177.776L178.394 56.0542C178.394 56.0542 180.988 57.234 181.748 58.4146C181.974 58.7752 182.064 60.9875 182.078 63.9091C182.097 66.6309 182.045 69.958 181.974 72.9512Z" fill="#D1F0FC"/>
<path d="M177.928 53.4718H171.94C171.56 53.4718 171.251 53.1628 171.251 52.7816V52.3929C171.251 52.0124 171.56 51.7035 171.94 51.7035H177.928C178.309 51.7035 178.618 52.0124 178.618 52.3929V52.7816C178.618 53.1628 178.309 53.4718 177.928 53.4718Z" fill="#363950"/>
<path d="M181.974 72.9512H167.895C167.824 69.958 167.773 66.6308 167.786 63.9091H182.078C182.097 66.6308 182.045 69.958 181.974 72.9512Z" fill="white"/>
<path d="M166.531 74.7143C168.975 75.3942 171.917 74.3707 171.917 74.3707C172.093 73.8471 172.181 73.2358 172.197 72.581C172.211 72.306 172.207 72.0228 172.193 71.7323C172.161 71.0907 172.085 70.4197 171.968 69.7457C171.92 69.4507 171.866 69.1535 171.805 68.8593C171.642 68.0762 171.449 67.3063 171.244 66.594C171.161 66.2865 171.072 65.9922 170.988 65.7098C170.75 64.9459 170.524 64.2874 170.346 63.797C170.141 63.2284 170.004 62.8878 170.004 62.8878C167.679 62.9438 164.536 64.8618 164.536 64.8618C164.337 65.7275 164.298 66.6508 164.369 67.5666C164.636 71.1674 166.531 74.7143 166.531 74.7143Z" fill="#F68672"/>
<path d="M167.492 66.9509C167.492 66.9509 167.818 66.9671 168.299 66.9583C168.784 66.948 169.419 66.9266 170.098 66.8248C170.511 66.7636 170.899 66.6803 171.244 66.594C171.161 66.2865 171.073 65.9923 170.988 65.7098C170.665 65.6796 170.308 65.6826 169.937 65.7349C169.184 65.8492 168.551 66.1582 168.132 66.4362C167.712 66.7142 167.492 66.9509 167.492 66.9509Z" fill="#D03B58"/>
<path d="M168.404 69.9403C168.404 69.9403 168.714 69.9831 169.171 70.0045C169.631 70.0236 170.238 70.0332 170.89 69.9521C171.277 69.9042 171.641 69.8245 171.968 69.7456C171.92 69.4507 171.866 69.1535 171.805 68.8593C171.485 68.8209 171.127 68.8091 170.751 68.8578C170.043 68.9478 169.437 69.2228 169.031 69.4713C168.623 69.7243 168.404 69.9403 168.404 69.9403Z" fill="#D03B58"/>
<path d="M168.382 72.828C168.382 72.828 168.705 72.876 169.191 72.9003C169.679 72.9209 170.328 72.9254 171.023 72.8295C171.448 72.7705 171.847 72.6791 172.197 72.581C172.211 72.306 172.207 72.0228 172.193 71.7323C171.803 71.6836 171.35 71.6718 170.871 71.7389C170.128 71.8421 169.494 72.1164 169.061 72.3649C168.623 72.6134 168.382 72.828 168.382 72.828Z" fill="#D03B58"/>
<path d="M164.369 67.5666C164.754 66.886 165.203 66.2504 165.805 65.7592C166.354 65.3079 167.006 65.0019 167.657 64.7217C168.402 64.4002 169.185 64.0256 169.978 63.8383C170.081 63.8117 170.208 63.8044 170.346 63.797C170.141 63.2284 170.004 62.8878 170.004 62.8878C167.679 62.9438 164.536 64.8618 164.536 64.8618C164.337 65.7275 164.298 66.6508 164.369 67.5666Z" fill="#F9AA7F"/>
<path d="M221.297 223.737L219.592 215.612L220.386 200.043L208.419 200.504L207.306 217.713L210.866 224.138L220.121 225.953L221.297 223.737Z" fill="#F36269"/>
<path d="M187.778 228.279L221.808 227.882C221.74 227.248 221.559 225.663 221.297 223.737C218.955 223.887 215.865 223.819 214.199 222.716C212.128 221.345 210.843 217.124 210.275 214.791L204.671 214.715C204.137 215.984 202.757 218.976 201.106 220.386C198.978 222.21 191.008 225.552 188.842 226.616C188.101 226.981 187.852 227.678 187.778 228.279Z" fill="#282A3E"/>
<path d="M187.812 231.269L187.777 228.276L221.807 227.883L221.846 231.269H187.812Z" fill="#DCDDDA"/>
<path d="M204.49 203.476C205.639 203.662 207.588 203.687 209.901 203.625C213.004 203.53 216.763 203.273 220.108 202.997C221.111 202.919 222.084 202.836 222.985 202.752C223.939 202.67 224.809 202.589 225.579 202.513C227.539 202.328 228.806 202.195 228.806 202.195L225.954 158.48C225.954 158.48 234.871 129.235 236.831 120.654C236.404 117.623 235.618 113.937 234.765 110.388L228.866 111.503L207.306 108.485C206.499 121.794 207.107 153.619 206.881 155.607C206.849 155.9 206.831 156.295 206.825 156.79L206.821 156.829L204.49 203.476Z" fill="#A3889F"/>
<path d="M210.09 166.416C211.776 168.15 214.049 167.396 215.277 164.924C215.934 163.6 216.343 162.087 216.248 160.55C216.154 159.012 215.515 157.455 214.389 156.481C213.262 155.509 211.635 155.221 210.429 155.946C209 156.804 208.467 158.761 208.378 160.574C208.305 162.054 208.458 163.598 209.099 164.94C209.392 165.552 209.727 166.042 210.09 166.416Z" fill="#B99EB2"/>
<path d="M246.021 222.714L243.593 214.776L242.987 199.198L231.11 200.73L231.546 217.97L235.668 224.049L245.049 225.028L246.021 222.714Z" fill="#F68672"/>
<path d="M213.045 230.247L246.902 226.797C246.777 226.172 246.455 224.609 246.021 222.714C243.702 223.073 240.617 223.283 238.86 222.334C236.674 221.155 235.017 217.068 234.24 214.794L228.653 215.221C228.234 216.533 227.128 219.637 225.611 221.189C223.654 223.197 216.017 227.242 213.956 228.495C213.251 228.924 213.064 229.641 213.045 230.247Z" fill="#363950"/>
<path d="M213.347 233.222L213.044 230.244L246.901 226.797L247.218 229.915L213.347 233.222Z" fill="white"/>
<path d="M224.351 203.422C225.512 203.494 227.455 203.33 229.749 203.044C232.829 202.648 236.545 202.026 239.847 201.427C240.839 201.252 241.799 201.075 242.688 200.904C243.628 200.73 244.487 200.564 245.245 200.414C247.179 200.039 248.427 199.783 248.427 199.783L241.34 156.553C241.34 156.553 247.374 126.579 248.49 117.849C247.771 114.874 246.631 111.282 245.436 107.832L239.673 109.515L219.676 109.236C220.166 122.56 222.11 153.545 222.079 155.546C222.076 155.841 222.095 156.236 222.138 156.73V156.768L224.351 203.422Z" fill="#B99EB2"/>
<path d="M236.595 157.902L245.245 200.414C247.179 200.039 248.427 199.783 248.427 199.783L241.34 156.553C241.34 156.553 247.374 126.579 248.49 117.849C247.771 114.874 246.631 111.282 245.436 107.832L239.674 109.515C240.506 114.005 242.048 122.549 241.883 124.046C241.699 125.668 238.444 146.248 237.136 154.509C236.8 156.604 236.595 157.902 236.595 157.902Z" fill="#A3889F"/>
<path d="M226.323 165.992C228.169 167.554 230.357 166.583 231.339 164.004C231.864 162.622 232.126 161.077 231.882 159.556C231.64 158.035 230.851 156.545 229.636 155.687C228.419 154.829 226.773 154.7 225.643 155.539C224.304 156.532 223.963 158.533 224.051 160.345C224.122 161.825 224.425 163.347 225.192 164.62C225.543 165.201 225.925 165.655 226.323 165.992Z" fill="#D0B6C7"/>
<path d="M202.623 43.4039C202.971 46.4575 205.582 48.7332 208.205 50.3363C219.204 57.0858 233.859 57.3808 245.118 51.0789C247.988 49.4699 250.718 47.383 252.274 44.4828C252.445 44.1642 252.599 43.8346 252.728 43.4983C253.837 40.7574 253.742 37.4626 251.92 35.1693C250.753 33.6959 249.038 32.7874 247.582 31.6031C246.126 30.424 244.823 28.7088 245.053 26.8461C245.337 24.4879 247.924 22.8899 248.16 20.5265C248.336 18.7405 247.093 17.1197 245.713 15.9701C242.5 13.3051 241.399 9.95132 238.94 6.82691C236.157 3.29029 231.372 0.950493 227.009 0.248478C223.396 -0.34145 219.565 0.0951157 216.334 1.81623C213.098 3.53809 210.533 6.60276 209.749 10.1814C209.178 12.7926 209.519 15.6574 208.276 18.0215C207.516 19.4654 206.213 20.6032 205.623 22.1238C205.28 23.002 205.199 23.9157 205.258 24.8411C205.399 27.0873 206.33 29.4337 206.17 31.7204C205.889 35.8293 202.151 39.3128 202.623 43.4039Z" fill="#FABF75"/>
<path d="M206.184 42.6517C206.184 42.6517 203.76 43.4754 202.581 46.001C201.402 48.5274 191.408 66.5379 191.408 66.5379L208.21 72.4313L206.184 42.6517Z" fill="#88C036"/>
<path d="M190.529 68.0386L192.397 63.463L208.87 70.0525L207.518 74.4415L190.529 68.0386Z" fill="#61AE32"/>
<path d="M249.862 114.633C249.862 114.633 219.118 117.464 206.184 114.821L208.211 79.0245L206.184 42.6517L211.841 41.0066L219.685 38.7206L223.586 39.2995L229.847 37.4508C229.847 37.4508 232.614 38.2708 236.076 39.6018C239.928 41.0803 244.636 43.1878 247.31 45.4863L249.862 114.633Z" fill="#88C036"/>
<path d="M236.075 39.6003C233.657 42.0058 228.072 46.9848 222.957 47.6492C217.74 48.3195 213.51 43.3346 211.839 41.0058L214.793 40.1482L219.688 38.7228L223.583 39.2973L229.846 37.4523C229.846 37.4523 231.058 37.8136 232.876 38.4389C233.812 38.7619 234.901 39.149 236.075 39.6003Z" fill="#F68672"/>
<path d="M236.075 39.6003C233.657 42.0058 228.072 46.9848 222.957 47.6492C217.74 48.3195 213.51 43.3346 211.839 41.0058L214.793 40.1482C216.199 42.154 219.481 46.3137 222.506 46.1397C225.647 45.959 230.826 40.677 232.876 38.4389C233.812 38.7619 234.901 39.149 236.075 39.6003Z" fill="#61AE32"/>
<path d="M231.799 38.0739C231.799 38.0739 223.617 41.8561 222.469 41.4299C221.32 41.0096 219.686 38.7236 219.686 38.7236C219.925 38.4294 221.591 37.279 221.506 36.3853C221.312 34.3235 220.558 31.4498 220.558 31.4498L227.473 29.0687C227.473 29.0687 227.759 31.0472 228.158 33.1414C228.562 35.2622 231.361 37.7495 231.799 38.0739Z" fill="#F68672"/>
<path d="M228.157 33.1384C226.257 34.5572 223.921 36.237 223.159 36.4973C222.535 36.7075 221.954 36.5814 221.509 36.3853C221.311 34.322 220.556 31.452 220.556 31.452L227.471 29.0701C227.471 29.0701 227.76 31.0508 228.157 33.1384Z" fill="#F36269"/>
<path d="M231.283 9.67992C227.489 5.33879 221.131 4.03581 216.138 6.91834C214.99 7.58054 214.073 8.33341 213.661 9.16226C212.012 12.4754 209.661 24.6685 212.189 30.5287C214.715 36.3897 218.693 35.5866 220.111 35.1737C221.527 34.7615 228.184 31.9851 229.723 29.8142C231.263 27.6425 234.562 16.4368 233.827 13.5167C233.582 12.5418 232.549 11.1297 231.283 9.67992Z" fill="#F9AA7F"/>
<path d="M231.737 8.80167C227.944 4.4598 221.586 3.15606 216.592 6.03934C215.445 6.70227 214.527 7.4544 214.115 8.28325C212.466 11.5972 210.115 23.7895 212.642 29.6497C215.17 35.5106 219.147 34.7076 220.564 34.2947C221.981 33.8824 228.638 31.1061 230.178 28.9352C231.717 26.7635 235.017 15.5578 234.282 12.6384C234.036 11.6628 233.003 10.2507 231.737 8.80167Z" fill="#F68672"/>
<path d="M230.37 23.7511C230.726 23.5823 232.524 21.2395 233.777 22.6731C235.029 24.1058 235.358 26.4678 234.166 27.7877C233.078 28.9919 231.564 30.2898 229.724 29.8141L230.37 23.7511Z" fill="#F68672"/>
<path d="M233.73 24.4753C233.802 24.7909 233.75 25.1176 233.648 25.4266C233.217 26.7407 231.965 27.7303 230.767 28.6483C231.133 28.0142 231.274 27.2937 231.21 26.5887C231.188 26.3432 231.142 26.0991 231.143 25.8543C231.148 24.8647 233.307 22.6104 233.73 24.4753Z" fill="#F36269"/>
<path d="M230.166 29.0163L230.234 28.9765C230.277 28.9492 230.347 28.9138 230.427 28.8577C230.587 28.7471 230.809 28.5694 231.02 28.3039C231.229 28.0385 231.42 27.6845 231.515 27.2627C231.6 26.8424 231.591 26.3506 231.384 25.8749L231.3 25.7002L231.277 25.6581L231.274 25.653L231.274 25.6537H231.273L231.276 25.6471L231.296 25.6087L231.337 25.5342L231.423 25.389C231.537 25.1972 231.66 25.0173 231.787 24.8499C231.914 24.6833 232.044 24.5292 232.174 24.3898C232.305 24.2504 232.43 24.1199 232.554 24.0233C232.678 23.9267 232.813 23.864 232.94 23.8485C233.067 23.8345 233.186 23.867 233.266 23.9105C233.347 23.9547 233.391 24.0108 233.409 24.0528L233.429 24.1191L233.427 24.0484C233.419 24.0026 233.388 23.9326 233.307 23.867C233.227 23.8043 233.102 23.7438 232.933 23.7372C232.767 23.7327 232.586 23.7903 232.424 23.8847C232.26 23.9798 232.113 24.0992 231.957 24.2305C231.803 24.3632 231.646 24.5122 231.496 24.6796C231.345 24.8462 231.199 25.0299 231.066 25.2297L230.969 25.3823L230.923 25.4605L230.861 25.5711L230.818 25.6485L230.858 25.7274L230.917 25.841L230.989 25.9922C231.168 26.4051 231.204 26.835 231.164 27.22C231.116 27.6049 230.989 27.9463 230.836 28.2162C230.684 28.4868 230.51 28.6867 230.381 28.8187L230.223 28.9647L230.166 29.0163Z" fill="#D03B58"/>
<path d="M218.981 24.0897C219.286 24.041 219.601 23.9415 219.896 24.0307C219.463 24.6597 218.772 25.1066 218.022 25.2452L217.845 25.2519C217.775 25.2356 217.717 25.1877 217.663 25.1405C217.321 24.8389 217.039 24.4687 216.838 24.0587C216.798 23.9754 216.761 23.8884 216.757 23.7962C216.745 23.4902 216.933 23.5934 217.094 23.6952C217.28 23.8139 217.481 23.909 217.691 23.9791C218.104 24.117 218.55 24.1583 218.981 24.0897Z" fill="#F36269"/>
<path d="M217.991 25.0652C217.844 24.8713 217.67 24.6973 217.517 24.5063C217.329 24.2703 217.16 24.0196 217.02 23.7519C218.098 23.2822 218.282 22.2874 218.455 21.1533C218.533 20.6415 218.489 20.1128 218.329 19.6209C218.244 19.3621 218.129 19.1143 217.985 18.8835C217.911 18.767 217.831 18.6542 217.744 18.5465C217.659 18.4418 217.563 18.3747 217.45 18.3002C217.496 18.3784 217.52 18.4639 217.56 18.5428C217.663 18.75 217.775 18.9455 217.857 19.163C217.938 19.3805 218 19.6055 218.043 19.8341C218.129 20.2905 218.141 20.7624 218.068 21.2218C217.997 21.6724 217.843 22.1119 217.598 22.4976C217.319 22.9371 216.895 23.3463 216.407 23.5395C216.403 23.541 216.91 24.423 216.961 24.4967C217.096 24.6877 217.248 24.8661 217.417 25.0269C217.584 25.184 217.775 25.3691 218.008 25.4052C218.082 25.417 218.16 25.4148 218.227 25.3845L218.133 25.2725L218.098 25.2194L217.991 25.0652Z" fill="#F14568"/>
<path d="M223.967 26.8594C221.612 28.1594 218.683 28.3703 216.167 27.4205C217.394 28.2818 218.761 28.8312 220.258 28.7398C221.755 28.6476 222.853 27.8637 223.967 26.8594Z" fill="#F14568"/>
<path d="M221.645 29.458C220.663 30.0568 219.382 30.1372 218.332 29.6667C218.731 30.174 219.291 30.4934 219.936 30.4919C220.582 30.4911 221.249 29.9668 221.645 29.458Z" fill="#F14568"/>
<path d="M212.591 15.2149C212.591 15.2149 214.35 13.8669 215.447 13.9753C216.543 14.083 216.869 15.0896 216.436 15.2879C216.004 15.487 212.591 15.2149 212.591 15.2149Z" fill="#FCD18A"/>
<path d="M228.087 16.9685C228.087 16.9685 225.565 14.7371 223.864 14.4082C222.163 14.0793 221.523 15.0726 222.162 15.4723C222.8 15.872 228.087 16.9685 228.087 16.9685Z" fill="#FCD18A"/>
<path d="M223.602 24.7268C223.67 25.2489 224.842 25.5276 226.219 25.3492C227.598 25.1707 228.66 24.6029 228.592 24.0816C228.525 23.5595 227.353 23.2815 225.975 23.4592C224.597 23.6377 223.535 24.2055 223.602 24.7268Z" fill="#F36269"/>
<path d="M210.186 22.0161C210.015 22.3759 210.755 23.0853 211.84 23.6C212.924 24.1147 213.942 24.2408 214.112 23.881C214.283 23.5204 213.542 22.8117 212.458 22.297C211.374 21.7816 210.356 21.6562 210.186 22.0161Z" fill="#F36269"/>
<path d="M226.392 18.4772C226.143 18.8821 225.512 19.118 225.079 19.2375C224.919 18.9661 224.695 18.7818 224.427 18.7316C223.741 18.6048 223.019 19.3953 222.815 20.4977C222.611 21.5994 223.002 22.5964 223.688 22.7232C224.375 22.8501 225.097 22.0596 225.301 20.9571C225.364 20.6157 225.37 20.2854 225.327 19.9867C225.936 19.6232 226.392 18.4772 226.392 18.4772Z" fill="#121414"/>
<path d="M224.059 20.8738C224.059 20.8738 224.712 21.2381 225.407 21.1068C226.102 20.9756 226.577 20.3974 226.577 20.3974C226.577 20.3974 225.925 20.0331 225.229 20.1644C224.534 20.2957 224.059 20.8738 224.059 20.8738Z" fill="white"/>
<path d="M213.031 17.4877C213.103 17.8637 213.51 18.2236 213.802 18.4382C214.001 18.2803 214.221 18.2051 214.438 18.2457C214.992 18.3475 215.308 19.1512 215.144 20.0406C214.98 20.9291 214.398 21.567 213.844 21.4652C213.291 21.3635 212.975 20.5597 213.139 19.6704C213.19 19.3953 213.28 19.1439 213.398 18.9315C213.044 18.4817 213.031 17.4877 213.031 17.4877Z" fill="#121414"/>
<path d="M214.098 19.9653C214.098 19.9653 213.501 20.0516 213.015 19.7522C212.529 19.4528 212.338 18.8813 212.338 18.8813C212.338 18.8813 212.935 18.7943 213.421 19.0937C213.907 19.3931 214.098 19.9653 214.098 19.9653Z" fill="white"/>
<path d="M234.908 25.0712C234.587 24.3021 234.126 23.4548 233.337 23.1864C232.548 22.9172 231.79 23.1547 231.066 23.5683C231.517 21.2138 232.378 18.5613 233.158 16.2938C228.679 15.2703 224.681 12.3007 222.408 8.30913C222.401 9.79722 223.016 11.278 224.074 12.3243C222.209 12.3015 220.387 11.275 219.398 9.69325C217.534 11.7455 214.914 13.21 212.142 13.2173C212.329 9.21098 214.606 5.30638 218.167 3.46137C221.728 1.61564 226.179 1.69603 229.752 3.51744C233.326 5.3381 235.973 8.81204 236.954 12.7011C237.933 16.5902 236.863 21.5692 234.908 25.0712Z" fill="#FABF75"/>
<path d="M205.257 24.8411C206.672 23.4326 207.698 21.5758 208.487 19.719C209.654 16.9419 210.463 13.9835 212.13 11.4778C213.923 8.784 216.593 6.80404 219.204 4.88751C219.835 5.58879 220.471 6.29007 221.108 6.99208C221.468 6.15438 221.822 5.31814 222.181 4.48118C225.652 9.15562 230.911 12.4622 236.629 13.5646C235.715 15.4096 237.443 17.4434 239.099 18.6579C240.755 19.8776 242.742 21.4048 242.477 23.4444C242.252 25.2186 240.396 26.327 239.73 27.9832C238.722 30.4889 240.761 33.2358 243.096 34.5919C245.431 35.9531 248.195 36.6131 250.199 38.4227C251.637 39.7198 252.516 41.5766 252.728 43.4983C253.836 40.7573 253.741 37.4626 251.92 35.1692C251.808 35.0277 251.69 34.892 251.572 34.7622C250.429 33.5182 248.896 32.6753 247.582 31.6031C246.126 30.424 244.823 28.7088 245.053 26.8461C245.336 24.4879 247.924 22.8899 248.16 20.5265C248.336 18.7405 247.093 17.1197 245.713 15.9701C242.5 13.305 241.398 9.95129 238.94 6.82689C236.157 3.29027 231.371 0.95047 227.009 0.248455C223.395 -0.341473 219.564 0.0950928 216.334 1.81621C213.097 3.53806 210.533 6.60273 209.749 10.1814C209.661 10.5877 209.595 10.9947 209.543 11.4128C209.247 13.6708 209.325 16.0224 208.275 18.0215C207.515 19.4654 206.212 20.6032 205.622 22.1237C205.28 23.002 205.198 23.9156 205.257 24.8411Z" fill="#FCD18A"/>
<path d="M209.543 11.4128C209.985 11.2071 210.404 10.9594 210.786 10.6762C212.56 9.36729 213.816 7.48687 215.225 5.79009C216.628 4.08594 218.349 2.47028 220.513 2.02267C220.589 2.55951 220.666 3.09561 220.749 3.63245C222.14 2.60671 223.843 1.99908 225.576 1.91059C228.866 6.59093 233.929 9.9867 239.505 11.2543C238.928 12.8515 240.078 14.5372 241.327 15.6869C242.572 16.8365 244.068 17.933 244.463 19.5775C244.941 21.5699 243.621 23.527 243.408 25.5608C243.172 27.8652 244.404 30.1232 246.132 31.6614C247.694 33.0588 249.627 33.9665 251.572 34.7622C250.429 33.5182 248.896 32.6753 247.582 31.6031C246.126 30.424 244.823 28.7088 245.053 26.8461C245.336 24.4879 247.924 22.8899 248.16 20.5265C248.336 18.7405 247.093 17.1197 245.713 15.9701C242.5 13.3051 241.398 9.9513 238.94 6.82689C236.157 3.29028 231.371 0.950474 227.009 0.248463C223.395 -0.341465 219.564 0.0951004 216.334 1.81622C213.097 3.53807 210.533 6.60274 209.749 10.1814C209.661 10.5877 209.595 10.9947 209.543 11.4128Z" fill="#FDE498"/>
<path d="M253.899 90.4757C253.891 90.5436 253.884 90.6077 253.872 90.6756C253.775 91.2633 253.623 91.8503 253.416 92.4181C253.004 93.5448 252.377 94.5919 251.533 95.4112C251.314 95.6273 251.082 95.8271 250.83 96.0026C250.63 96.1545 250.418 96.2865 250.195 96.4104C249 97.066 247.652 97.2577 246.314 97.094C246.01 97.0579 245.707 97.0018 245.403 96.9259C244.316 96.6619 243.26 96.1744 242.334 95.5196C241.894 95.2077 241.483 94.864 241.111 94.4843L240.931 94.2926C238.713 91.9424 237.633 88.7332 236.894 85.5882C235.827 81.0361 234.357 74.8419 236.159 70.2781C236.615 69.127 237.47 68.2155 238.525 67.5725C238.937 67.3203 239.381 67.1087 239.84 66.9406C240.072 66.8528 240.307 66.7769 240.548 66.7171C240.827 66.6412 241.111 66.577 241.398 66.5328C241.654 66.4929 241.91 66.4657 242.166 66.4494C242.429 66.4332 242.698 66.4295 242.961 66.4413C243.337 66.4531 243.709 66.4929 244.072 66.5615C244.368 66.6168 244.656 66.6891 244.931 66.785C245.271 66.8926 245.591 67.029 245.898 67.1927C248.736 68.7236 250.138 71.9645 251.138 75.0255C252.07 77.8631 252.828 80.7522 253.424 83.6776C253.88 85.9156 254.235 88.2222 253.899 90.4757Z" fill="#20795A"/>
<path d="M242.333 95.5196C241.894 95.2077 241.482 94.8641 241.111 94.4843L240.931 94.2926C240.875 94.1562 240.819 94.0205 240.766 93.8804C239.093 89.5289 238.133 84.8412 237.346 80.253C236.622 76.0328 236.431 71.4166 238.525 67.5725C238.937 67.3203 239.381 67.1087 239.84 66.9406L239.804 67.001C238.385 69.1071 237.75 71.6047 237.642 74.1222C237.538 76.5999 237.913 79.0621 238.385 81.4874C238.817 83.7255 239.281 85.9598 239.836 88.1699C240.467 90.68 241.251 93.1732 242.333 95.5196Z" fill="#51C292"/>
<path d="M246.314 97.094C246.01 97.0579 245.707 97.0018 245.403 96.9259C244.963 95.7313 244.519 94.5403 244.08 93.345C243.232 91.0472 242.182 88.7332 241.682 86.3278C241.202 84.0057 241.275 81.6113 240.803 79.2855C240.335 76.9922 239.74 74.7343 239.781 72.376C239.812 70.4654 240.148 68.5835 240.547 66.7171C240.827 66.6412 241.111 66.577 241.398 66.5328C240.903 68.8387 240.471 71.1733 240.603 73.5389C240.731 75.8573 241.45 78.0828 241.81 80.3651C242.178 82.6865 242.086 85.0528 242.762 87.3226C243.44 89.6049 244.372 91.8304 245.195 94.0647C245.571 95.0757 245.942 96.083 246.314 97.094Z" fill="#51C292"/>
<path d="M251.533 95.4112C251.314 95.6273 251.082 95.8271 250.83 96.0026C250.559 94.3125 250.163 92.6415 249.687 90.9949C248.448 86.7113 246.682 82.6186 245.115 78.4545C243.66 74.586 242.418 70.5937 242.166 66.4494C242.429 66.4332 242.698 66.4295 242.961 66.4413C243.1 68.703 243.544 70.9329 244.165 73.1112C245.372 77.3793 247.189 81.4439 248.724 85.5963C249.907 88.793 250.946 92.0582 251.533 95.4112Z" fill="#51C292"/>
<path d="M253.899 90.4757C253.891 90.5436 253.884 90.6077 253.872 90.6756C253.775 91.2633 253.623 91.8503 253.416 92.4181C253.312 91.691 253.188 90.9676 253.044 90.2442C252.173 85.8124 250.654 81.5722 248.624 77.5438C246.842 74.0064 244.82 70.4853 244.072 66.5615C244.368 66.6168 244.656 66.6891 244.931 66.785C245.355 68.7553 246.098 70.6416 246.961 72.4638C247.905 74.4621 248.975 76.3964 249.931 78.3903C250.89 80.3887 251.721 82.4468 252.401 84.5573C253.024 86.4952 253.524 88.4737 253.899 90.4757Z" fill="#51C292"/>
<path d="M270.764 77.2481C270.764 77.2481 274.516 110.64 272.299 113.904C270.081 117.168 257.684 120.3 253.308 120.77C248.933 121.24 237.335 113.904 237.335 113.904L234.908 81.2301L270.764 77.2481Z" fill="#46689C"/>
<path d="M238.521 79.801C238.521 79.801 236.292 61.014 236.831 58.9588C237.369 56.9044 243.721 43.0743 243.721 43.0743C243.721 43.0743 247.022 43.9533 247.31 45.4863C247.31 45.4863 239.899 58.6285 239.899 60.3525C239.899 62.0766 242.028 79.523 242.028 79.523L238.521 79.801Z" fill="#46689C"/>
<path d="M247.31 45.4863C247.31 45.4863 255.51 50.3518 256.435 54.1281C257.244 57.4287 260.765 70.9049 260.765 70.9049L245.895 72.4313L244.671 55.6095L247.31 45.4863Z" fill="#88C036"/>
<path d="M244.671 70.9676L260.765 68.0386L262.389 74.1886L244.671 75.7998V70.9676Z" fill="#61AE32"/>
<path d="M266.697 168.275C265.335 174.408 253.481 179.464 248.219 179.774C242.963 180.077 231.864 175.175 231.973 171.648C232.083 168.127 231.973 141.42 231.973 141.42L232.108 141.407L260.763 138.505C260.763 138.505 263.871 148.585 265.652 157.285C266.593 161.909 267.166 166.147 266.697 168.275Z" fill="#D1F0FC"/>
<path d="M266.697 168.275C265.335 174.408 253.481 179.464 248.219 179.774C242.963 180.077 231.864 175.175 231.973 171.648C232.083 168.127 231.973 141.42 231.973 141.42L232.108 141.407C232.631 147.211 234.714 168.178 237.32 170.423C240.358 173.028 250.78 175.943 250.78 175.943C250.78 175.943 245.891 174.099 246.8 171.036C247.716 167.972 259.409 161.226 260.763 164.908C262.117 168.584 261.505 170.268 261.505 170.268C261.505 170.268 264.762 169.5 265.129 166.746C265.296 165.444 265.49 161.297 265.652 157.285C266.593 161.909 267.166 166.147 266.697 168.275Z" fill="#B5DEED"/>
<path d="M236.024 141.421C236.024 141.421 241.727 124.449 246.592 125.369C251.458 126.288 257.58 140.693 257.58 140.693L253.209 141.421C253.209 141.421 248.209 129.659 246.079 130.119C243.948 130.579 239.361 143.758 239.361 143.758L236.024 141.421Z" fill="#D1F0FC"/>
<path d="M237.941 135.035C239.14 135.411 240.785 126.892 240.785 126.892L243.161 126.485L242.807 130.109L244.872 134.997C244.872 134.997 245.903 135.029 247.169 134.993C247.326 134.99 247.488 134.983 247.65 134.977C248.407 134.947 249.207 134.888 249.897 134.782C249.964 134.774 250.032 134.762 250.097 134.754C250.44 134.692 251.505 134.324 251.626 134.184L250.88 130.116C250.88 130.116 254.585 125.781 254.756 124.931C254.822 124.593 252.04 117.923 251.709 117.19L247.972 116.933C247.972 116.933 242.035 121.887 241.713 122.184C240.548 123.261 239.373 124.502 238.681 125.655C238.387 126.142 238.183 126.615 238.104 127.051C237.556 130.058 236.745 134.661 237.941 135.035Z" fill="#F68672"/>
<path d="M249.897 134.782C249.964 134.774 250.032 134.762 250.097 134.754C250.044 134.589 249.972 134.375 249.888 134.117C249.699 133.53 249.456 132.733 249.21 131.867C248.97 130.997 248.807 130.199 248.753 129.586C248.74 129.432 248.729 129.291 248.719 129.167C248.721 129.042 248.72 128.934 248.722 128.845C248.719 128.665 248.718 128.56 248.718 128.56C248.718 128.56 248.671 128.654 248.596 128.828C248.557 128.915 248.51 129.024 248.461 129.15C248.424 129.279 248.384 129.425 248.342 129.593C248.186 130.252 248.153 131.212 248.416 132.166C248.684 133.115 249.142 133.859 249.521 134.345C249.662 134.525 249.79 134.669 249.897 134.782Z" fill="#D03B58"/>
<path d="M247.169 134.993C247.327 134.99 247.488 134.983 247.65 134.977L247.619 134.874C247.431 134.287 247.187 133.49 246.942 132.624C246.702 131.754 246.539 130.957 246.483 130.343C246.472 130.188 246.459 130.05 246.451 129.927C246.451 129.8 246.452 129.692 246.451 129.603C246.45 129.421 246.449 129.32 246.449 129.32C246.449 129.32 246.405 129.412 246.327 129.585C246.291 129.673 246.242 129.78 246.195 129.908C246.156 130.036 246.115 130.185 246.074 130.349C245.917 131.011 245.884 131.973 246.148 132.925C246.396 133.806 246.808 134.511 247.169 134.993Z" fill="#D03B58"/>
<path d="M247.973 116.933L250.097 97.3624L247.65 75.5292L259.186 74.4798C259.186 74.4798 260.357 97.7068 260.127 98.8556C259.897 100.005 253.903 123.296 253.903 123.296L247.973 116.933Z" fill="#F68672"/>
<path d="M191.551 27.439L181.78 18.461L178.618 25.1361L191.551 27.439Z" fill="white"/>
<path d="M195.744 26.4391L196.725 18.1602L192.172 18.7479L195.744 26.4391Z" fill="white"/>
<path d="M191.126 33.2416L182.276 33.2556L182.671 37.4493L191.126 33.2416Z" fill="white"/>
<path d="M103.515 232.969C103.515 232.969 80.4279 239 51.9472 239C23.4673 239 0.380371 232.969 0.380371 232.969C0.380371 232.969 23.4673 226.939 51.9472 226.939C80.4279 226.939 103.515 232.969 103.515 232.969Z" fill="#CBB59B"/>
<path d="M225.938 231.936C225.938 231.936 192.771 237.967 151.857 237.967C110.943 237.967 77.7759 231.936 77.7759 231.936C77.7759 231.936 110.943 225.906 151.857 225.906C192.771 225.906 225.938 231.936 225.938 231.936Z" fill="#CBB59B"/>
<path d="M90.5905 86.8896L81.0523 80.7268L77.4367 69.2985L70.3976 71.5959L71.1966 86.8896L87.0016 93.5058L90.5905 86.8896Z" fill="#F68672"/>
<path d="M98.201 102.442C97.8731 102.38 97.5705 102.258 97.2829 102.096L97.2758 102.091C96.5933 101.719 96.0084 101.119 95.4644 100.54C94.8548 99.8917 94.2081 99.26 93.5561 98.6347C93.0109 98.1071 92.467 97.5866 91.9406 97.0569C91.6251 96.7499 91.3284 96.4408 91.031 96.1253L88.625 94.677C88.625 94.677 88.0271 94.2521 87.0017 93.5058L88.2535 91.1922L88.2607 91.1974L89.7597 88.4264L90.5925 86.8902L92.668 88.1934L94.5366 89.3704C97.2973 88.1759 100.322 87.2871 103.329 87.2559C103.823 87.2481 104.321 87.2786 104.813 87.2969L104.825 87.2956C105.543 87.3346 106.253 87.3554 106.964 87.2735C108.292 87.1127 109.532 86.5558 110.815 86.1615C111.014 86.1017 111.221 86.0477 111.428 85.9995C111.772 85.9117 112.152 85.8583 112.465 86.0177L112.507 86.0457C112.878 86.2695 113.016 86.7764 112.92 87.2045C112.908 87.2702 112.882 87.3307 112.863 87.3906C112.728 87.7523 112.465 88.0633 112.199 88.3489L112.088 88.4504C110.619 89.9326 108.651 90.9014 106.59 91.1792C106.324 91.2137 106.031 91.2449 105.837 91.4199C105.662 91.5806 105.592 91.8324 105.547 92.0686C105.372 93.0263 105.516 94.0146 105.84 94.9444C105.999 95.4037 106.208 95.8572 106.441 96.2957L106.449 96.3074C106.737 96.8429 107.067 97.3992 107.034 97.9945C107.001 98.474 106.742 98.8748 106.386 99.2151L106.327 99.273C106.047 99.5345 105.71 99.7506 105.389 99.9392C105.22 100.041 105.05 100.136 104.866 100.226C103.519 100.974 102.099 101.602 100.634 102.093C99.8458 102.363 99.0156 102.6 98.201 102.442Z" fill="#F36269"/>
<path d="M112.468 86.0197C112.154 85.8557 111.774 85.9136 111.426 85.9976C111.221 86.0483 111.014 86.1043 110.812 86.1635C109.532 86.5565 108.294 87.1101 106.967 87.2721C106.254 87.358 105.542 87.334 104.823 87.2936L104.815 87.2975C104.322 87.2767 103.825 87.2474 103.329 87.2526C100.322 87.2884 97.2979 88.1746 94.5386 89.3704L90.5906 86.8896L89.7578 88.4251L88.2516 91.1948L87.0017 93.5058L92.2321 94.1552C94.6934 92.6164 99.4827 89.4739 102.971 88.5214C103.593 88.3515 104.168 88.2533 104.686 88.2429C105.286 88.2364 105.899 88.2494 106.511 88.2474C107.7 88.2442 108.877 88.1681 109.942 87.671L110.11 87.5923C110.701 87.3281 111.439 87.0737 111.829 87.4459C111.879 87.4927 111.921 87.5435 111.959 87.6059C112.102 87.8545 112.058 88.1603 112.088 88.453L112.197 88.3509C112.466 88.0653 112.725 87.7536 112.861 87.388C112.884 87.3288 112.907 87.2689 112.918 87.2051C113.017 86.7764 112.879 86.2695 112.505 86.0477L112.468 86.0197Z" fill="#F68672"/>
<path d="M99.5081 95.5982C98.0403 96.2716 96.3975 96.5163 94.7845 96.446C96.294 96.9171 97.9368 97.096 99.4561 96.6588C100.975 96.2215 102.347 95.096 102.812 93.5846C102.897 93.3106 102.998 92.9684 102.956 92.7062C102.422 92.9261 101.964 93.8728 101.511 94.2827C100.917 94.8207 100.236 95.2632 99.5081 95.5982Z" fill="#F14568"/>
<path d="M149.63 105.682C149.295 106.034 148.709 106.116 148.29 105.868C147.918 107.937 147.546 110.006 147.174 112.075C147.087 112.565 146.936 113.134 146.472 113.314C145.863 113.549 145.281 112.933 144.938 112.377C144.131 111.064 143.605 109.682 143.057 108.286H141.186C141.284 109.148 141.952 110.26 142.279 110.833C142.608 111.408 144.435 116.741 144.551 116.763C145.765 117.008 147.033 116.977 148.234 116.671C147.91 112.964 148.39 109.19 149.63 105.682Z" fill="#2AB57E"/>
<path d="M152.291 101.019C153.06 99.9399 152.725 98.2431 151.605 97.5365C150.485 96.8299 148.81 97.2593 148.167 98.4174C147.917 97.2756 146.777 96.3985 145.609 96.4493C144.442 96.4994 143.381 97.4714 143.23 98.6302C142.446 97.3374 140.764 96.6653 139.305 97.0615C137.846 97.4577 136.734 98.8878 136.712 100.4C135.916 100.201 135.036 100.211 134.317 100.607C133.597 101.002 133.091 101.837 133.241 102.644C133.391 103.451 134.311 104.073 135.077 103.777C134.365 104.333 134.149 105.429 134.594 106.213C135.04 106.996 136.092 107.371 136.933 107.045C135.841 108.561 136.704 111.052 138.5 111.567C140.336 112.094 142.161 110.485 142.243 108.678L142.274 108.734C142.283 109.599 142.824 110.411 143.552 110.889C144.314 111.39 145.246 111.571 146.158 111.61C148.709 111.717 152.798 109.998 151.824 106.796L151.822 106.727C153.428 106.574 155.21 106.126 155.415 104.172C155.59 102.489 153.975 100.859 152.291 101.019Z" fill="#2EAE7D"/>
<path d="M167.324 107.757C166.926 107.93 166.417 107.794 166.158 107.446C165.134 109.019 164.111 110.592 163.088 112.165C162.846 112.537 162.525 112.953 162.08 112.941C161.498 112.924 161.232 112.215 161.144 111.638C160.935 110.278 160.981 108.959 161.015 107.62L159.475 106.971C159.257 107.714 159.421 108.861 159.492 109.447C159.562 110.033 159.218 115.054 159.304 115.112C160.218 115.735 161.274 116.149 162.367 116.314C163.386 113.152 165.088 110.213 167.324 107.757Z" fill="#2AB57E"/>
<path d="M171.13 104.842C172.136 104.222 172.449 102.71 171.773 101.74C171.096 100.771 169.57 100.543 168.639 101.273C168.829 100.247 168.195 99.1299 167.217 98.7668C166.239 98.4031 165.029 98.8358 164.504 99.7369C164.307 98.4018 163.156 97.2652 161.819 97.085C160.48 96.9054 159.07 97.6972 158.528 98.9334C157.942 98.4936 157.213 98.1969 156.485 98.2724C155.756 98.3485 155.05 98.8605 154.894 99.5762C154.737 100.292 155.279 101.123 156.011 101.145C155.234 101.356 154.676 102.181 154.771 102.981C154.865 103.781 155.601 104.453 156.406 104.477C154.982 105.346 154.829 107.693 156.128 108.74C157.456 109.81 159.515 109.118 160.208 107.661L160.215 107.718C159.922 108.433 160.085 109.288 160.519 109.934C160.973 110.61 161.677 111.081 162.413 111.429C164.475 112.403 168.434 112.406 168.743 109.433L168.765 109.375C170.14 109.807 171.761 110.057 172.607 108.519C173.334 107.196 172.571 105.295 171.13 104.842Z" fill="#2EAE7D"/>
<path d="M198.988 103.468V142.691H171.661V103.468H198.988Z" fill="#5B9FDC"/>
<path d="M179.73 103.47H173.755V101.056H179.73V103.47Z" fill="#363950"/>
<path d="M198.988 122.055V128.224C198.924 128.25 198.86 128.27 198.795 128.296C196.313 129.205 193.973 130.784 192.683 133.098C191.775 134.717 191.272 136.78 189.621 137.63C187.706 138.617 185.463 137.378 183.471 136.547C179.758 134.981 175.477 134.883 171.661 136.147V115.53C173.736 116.485 176.244 116.627 178.442 115.917C182.046 114.757 184.805 111.74 186.494 108.362C187.275 106.796 187.861 105.158 188.338 103.468H191.794C191.472 107.504 192.207 111.624 193.967 115.266C195.192 117.819 196.913 120.128 198.988 122.055Z" fill="white"/>
<path d="M176.332 121.795L177.515 124.625L178.697 121.795H180.592V127.215H179.031V124.246L178.103 126.69H176.927L176 124.246V127.215H174.437V121.795H176.332Z" fill="#363950"/>
<path d="M183.163 121.795V127.215H181.369V121.795H183.163Z" fill="#363950"/>
<path d="M185.732 121.795V125.723H187.989V127.215H183.938V121.795H185.732Z" fill="#363950"/>
<path d="M191.904 127.215L190.775 125.351L190.249 125.939V127.215H188.455V121.795H190.249V123.674L191.865 121.795H193.93L191.997 123.975L194.045 127.215H191.904Z" fill="#363950"/>
<path d="M200.63 130.643C200.995 130.676 201.372 130.701 201.718 130.581C202.063 130.462 202.371 130.16 202.384 129.793C202.4 129.316 201.944 128.971 201.527 128.737C200.204 127.994 198.76 127.466 197.269 127.182C199.397 127.064 201.487 126.316 203.207 125.057C203.763 124.649 204.319 123.87 203.868 123.348C203.595 123.031 203.109 123.04 202.693 123.088C201.076 123.273 199.479 123.639 197.943 124.177C199.14 123.266 199.932 121.84 200.073 120.342C200.11 119.938 200.049 119.439 199.678 119.275C199.334 119.123 198.95 119.358 198.66 119.596C197.511 120.539 196.559 121.723 195.887 123.048C196.19 122.431 196.501 121.774 196.44 121.089C196.377 120.404 195.78 119.72 195.101 119.831C194.57 119.917 194.224 120.421 193.965 120.892C193.17 122.339 190.919 127.207 192.195 128.722C192.799 129.439 195.127 129.689 196.013 129.897C197.533 130.253 199.076 130.503 200.63 130.643Z" fill="#2EAE7D"/>
<path d="M190.062 124.133C188.64 124.277 187.309 124.874 186.051 125.58C185.866 125.682 185.677 125.797 185.495 125.908C185.358 125.982 185.232 126.061 185.102 126.138C182.023 127.988 178.881 130.049 175.971 132.352C175.803 132.482 175.631 132.618 175.466 132.758C173.715 134.164 172.056 135.666 170.546 137.26C168.39 139.537 169.507 140.681 172.217 140.153C173.18 139.967 174.14 139.757 175.099 139.518C175.306 139.475 175.519 139.419 175.73 139.37C177.869 138.834 179.989 138.192 182.07 137.449C182.271 137.375 182.472 137.3 182.672 137.225C183.731 136.834 184.782 136.417 185.814 135.972C186.012 135.888 186.203 135.803 186.397 135.711C187.556 135.202 188.697 134.655 189.822 134.081C190.66 133.65 191.508 133.181 192.267 132.625C192.461 132.484 192.65 132.341 192.82 132.19C193.225 131.852 193.597 131.479 193.923 131.065C194.971 129.713 195.448 127.784 194.663 126.264C193.84 124.665 191.848 123.958 190.062 124.133Z" fill="#F68640"/>
<path d="M173.148 137.408C173.434 138.108 173.723 138.816 174.016 139.518C174.223 139.475 174.436 139.419 174.647 139.37C174.347 138.636 174.048 137.903 173.749 137.169C173.585 136.789 172.992 137.024 173.148 137.408Z" fill="#F46F2E"/>
<path d="M174.888 132.352C174.719 132.482 174.548 132.618 174.382 132.758C175.119 134.166 175.791 135.609 176.395 137.078C176.552 137.462 177.153 137.223 176.997 136.839C176.369 135.311 175.665 133.812 174.888 132.352Z" fill="#F46F2E"/>
<path d="M178.828 133.143C179.672 134.513 180.392 135.956 180.987 137.449C181.187 137.375 181.389 137.3 181.588 137.225C180.977 135.674 180.221 134.182 179.343 132.762C179.125 132.408 178.609 132.789 178.828 133.143Z" fill="#F46F2E"/>
<path d="M182.08 129.935C183.181 131.845 184.07 133.873 184.731 135.972C184.928 135.888 185.12 135.803 185.314 135.711C184.635 133.57 183.727 131.505 182.598 129.548C182.394 129.193 181.876 129.58 182.08 129.935Z" fill="#F46F2E"/>
<path d="M184.968 125.58C184.783 125.682 184.593 125.797 184.411 125.908C185.597 127.784 186.473 129.841 186.986 132.009C187.082 132.402 187.721 132.335 187.624 131.927C187.089 129.679 186.189 127.534 184.968 125.58Z" fill="#F46F2E"/>
<path d="M189.303 127.076C189.154 127.194 189.152 127.376 189.232 127.53C190.121 129.123 190.784 130.843 191.184 132.625C191.378 132.484 191.566 132.341 191.737 132.19C191.307 130.43 190.638 128.736 189.756 127.146C189.667 126.995 189.428 126.983 189.303 127.076Z" fill="#F46F2E"/>
<path d="M193.667 118.446C193.647 118.08 193.619 117.703 193.45 117.379C193.282 117.054 192.939 116.792 192.575 116.832C192.1 116.884 191.824 117.385 191.652 117.832C191.106 119.247 190.791 120.752 190.723 122.268C190.302 120.179 189.261 118.218 187.769 116.697C187.285 116.205 186.435 115.766 185.982 116.287C185.707 116.603 185.787 117.083 185.894 117.487C186.309 119.062 186.9 120.59 187.654 122.033C186.579 120.978 185.055 120.399 183.551 120.474C183.146 120.495 182.663 120.627 182.553 121.018C182.452 121.38 182.739 121.727 183.016 121.98C184.114 122.983 185.423 123.753 186.83 124.229C186.176 124.017 185.481 123.803 184.812 123.962C184.143 124.122 183.551 124.813 183.759 125.468C183.921 125.981 184.469 126.251 184.972 126.44C186.518 127.019 191.658 128.549 192.975 127.069C193.598 126.369 193.512 124.029 193.591 123.121C193.725 121.567 193.751 120.003 193.667 118.446Z" fill="#2EAE7D"/>
<path d="M188.895 130.91C189.24 132.297 190.022 133.528 190.901 134.672C191.029 134.84 191.17 135.012 191.306 135.175C191.398 135.3 191.495 135.413 191.59 135.533C193.862 138.313 196.353 141.127 199.048 143.677C199.202 143.825 199.362 143.975 199.524 144.119C201.165 145.65 202.89 147.077 204.684 148.342C207.247 150.15 208.219 148.88 207.308 146.274C206.985 145.347 206.639 144.427 206.266 143.512C206.193 143.313 206.108 143.11 206.029 142.909C205.192 140.87 204.253 138.862 203.219 136.91C203.116 136.723 203.014 136.535 202.911 136.347C202.372 135.354 201.809 134.375 201.22 133.417C201.109 133.233 200.997 133.056 200.879 132.877C200.208 131.802 199.504 130.752 198.774 129.722C198.228 128.953 197.642 128.182 196.983 127.51C196.816 127.338 196.646 127.173 196.473 127.025C196.08 126.672 195.658 126.358 195.202 126.095C193.713 125.252 191.736 125.056 190.344 126.052C188.879 127.095 188.465 129.167 188.895 130.91Z" fill="#F68640"/>
<path d="M204.302 144.673C204.953 144.291 205.613 143.903 206.266 143.513C206.193 143.313 206.108 143.11 206.029 142.909C205.346 143.311 204.663 143.712 203.979 144.113C203.626 144.331 203.945 144.883 204.302 144.673Z" fill="#F46F2E"/>
<path d="M199.048 143.677C199.202 143.825 199.361 143.975 199.523 144.119C200.81 143.188 202.142 142.315 203.51 141.507C203.868 141.297 203.545 140.737 203.188 140.946C201.764 141.787 200.382 142.699 199.048 143.677Z" fill="#F46F2E"/>
<path d="M199.267 139.664C200.502 138.633 201.826 137.712 203.219 136.91C203.116 136.722 203.013 136.534 202.911 136.347C201.464 137.174 200.095 138.136 198.816 139.209C198.497 139.475 198.948 139.931 199.267 139.664Z" fill="#F46F2E"/>
<path d="M195.626 136.905C197.358 135.542 199.238 134.372 201.219 133.417C201.109 133.233 200.997 133.056 200.878 132.877C198.856 133.855 196.943 135.05 195.169 136.449C194.846 136.7 195.303 137.158 195.626 136.905Z" fill="#F46F2E"/>
<path d="M190.901 134.672C191.029 134.84 191.17 135.012 191.306 135.175C192.993 133.733 194.904 132.572 196.975 131.753C197.351 131.601 197.192 130.979 196.803 131.133C194.655 131.984 192.661 133.183 190.901 134.672Z" fill="#F46F2E"/>
<path d="M191.761 130.167C191.9 130.298 192.079 130.274 192.22 130.171C193.669 129.065 195.276 128.16 196.983 127.51C196.816 127.338 196.647 127.173 196.473 127.025C194.793 127.703 193.212 128.608 191.765 129.708C191.628 129.818 191.65 130.058 191.761 130.167Z" fill="#F46F2E"/>
<path d="M179.676 146.936C179.663 147.045 179.651 147.148 179.631 147.258C179.476 148.205 179.231 149.153 178.896 150.069C178.232 151.887 177.219 153.576 175.86 154.897C175.505 155.245 175.131 155.568 174.725 155.852C174.402 156.097 174.061 156.31 173.699 156.509C171.772 157.567 169.6 157.876 167.44 157.612C166.95 157.554 166.46 157.464 165.97 157.341C164.216 156.915 162.515 156.129 161.019 155.072C160.309 154.569 159.646 154.014 159.047 153.401C158.943 153.299 158.846 153.196 158.756 153.092C155.179 149.302 153.437 144.125 152.245 139.052C150.524 131.709 148.151 121.716 151.059 114.354C151.793 112.497 153.173 111.027 154.875 109.989C155.539 109.583 156.255 109.241 156.996 108.971C157.37 108.829 157.75 108.706 158.137 108.61C158.588 108.487 159.047 108.384 159.51 108.313C159.923 108.248 160.335 108.204 160.749 108.178C161.173 108.152 161.605 108.146 162.032 108.164C162.637 108.184 163.237 108.248 163.823 108.358C164.3 108.449 164.765 108.565 165.209 108.719C165.757 108.893 166.273 109.112 166.769 109.377C171.347 111.846 173.61 117.074 175.221 122.012C176.723 126.59 177.949 131.251 178.909 135.97C179.644 139.58 180.218 143.3 179.676 146.936Z" fill="#20795A"/>
<path d="M161.019 155.072C160.309 154.569 159.646 154.014 159.046 153.401C158.943 153.299 158.846 153.196 158.756 153.092C158.666 152.873 158.575 152.654 158.492 152.428C155.791 145.408 154.243 137.846 152.973 130.445C151.806 123.637 151.497 116.191 154.875 109.99C155.539 109.583 156.255 109.241 156.996 108.971L156.938 109.068C154.649 112.465 153.625 116.494 153.45 120.556C153.282 124.553 153.889 128.524 154.649 132.437C155.346 136.047 156.093 139.651 156.99 143.216C158.009 147.265 159.272 151.287 161.019 155.072Z" fill="#51C292"/>
<path d="M167.44 157.612C166.95 157.554 166.46 157.464 165.97 157.341C165.261 155.413 164.546 153.492 163.837 151.565C162.47 147.858 160.774 144.125 159.969 140.244C159.194 136.499 159.311 132.637 158.55 128.885C157.795 125.184 156.835 121.542 156.9 117.739C156.951 114.657 157.493 111.621 158.137 108.61C158.589 108.487 159.047 108.384 159.511 108.313C158.711 112.032 158.015 115.798 158.227 119.614C158.434 123.353 159.594 126.944 160.174 130.626C160.768 134.371 160.619 138.188 161.709 141.85C162.805 145.531 164.307 149.121 165.636 152.725C166.241 154.356 166.841 155.981 167.44 157.612Z" fill="#51C292"/>
<path d="M175.86 154.897C175.505 155.245 175.131 155.568 174.725 155.852C174.287 153.125 173.648 150.43 172.881 147.774C170.883 140.863 168.033 134.261 165.506 127.543C163.159 121.303 161.154 114.863 160.748 108.178C161.173 108.152 161.605 108.146 162.031 108.165C162.257 111.813 162.972 115.411 163.972 118.925C165.918 125.81 168.851 132.366 171.328 139.064C173.235 144.222 174.912 149.489 175.86 154.897Z" fill="#51C292"/>
<path d="M179.676 146.936C179.663 147.045 179.651 147.148 179.631 147.258C179.476 148.206 179.231 149.153 178.896 150.069C178.729 148.896 178.528 147.729 178.297 146.562C176.891 139.412 174.441 132.573 171.167 126.074C168.291 120.369 165.029 114.689 163.824 108.358C164.301 108.449 164.765 108.565 165.209 108.72C165.893 111.897 167.092 114.94 168.485 117.88C170.007 121.104 171.734 124.224 173.275 127.441C174.822 130.664 176.162 133.985 177.258 137.388C178.264 140.515 179.07 143.706 179.676 146.936Z" fill="#51C292"/>
<path d="M184.019 161.271C184.019 164.597 175.379 165.855 169.475 165.726C163.801 165.848 155.627 164.694 154.982 161.665C154.944 161.536 154.931 161.407 154.931 161.271C154.931 158.461 158.154 142.602 159.669 135.304C160.14 133.067 160.442 131.629 160.442 131.629H178.5C178.5 131.629 178.803 133.067 179.274 135.304C180.789 142.602 184.019 158.461 184.019 161.271Z" fill="#FAB663"/>
<path d="M179.274 135.304C178.803 133.067 178.5 131.629 178.5 131.629H175.29H160.442C160.442 131.629 160.14 133.067 159.669 135.304H176.123C177.935 143.404 180.559 155.882 180.041 157.822C179.312 160.601 166.676 165.462 154.982 161.665C155.627 164.694 163.801 165.848 169.475 165.726C175.379 165.855 184.019 164.597 184.019 161.271C184.019 158.461 180.789 142.602 179.274 135.304Z" fill="#F7923D"/>
<path d="M180.042 133.121H158.902V128.296H180.042V133.121Z" fill="#FAB663"/>
<path d="M175.901 150.93H159.816V143.73H175.901V150.93Z" fill="white"/>
<path d="M204.688 161.586C204.688 164.912 196.05 166.169 190.145 166.041C184.471 166.163 176.297 165.009 175.652 161.979C175.613 161.85 175.6 161.722 175.6 161.586C175.6 158.775 178.824 142.916 180.338 135.618C180.809 133.382 181.113 131.944 181.113 131.944H199.17C199.17 131.944 199.473 133.382 199.943 135.618C201.458 142.916 204.688 158.775 204.688 161.586Z" fill="#F04242"/>
<path d="M199.943 135.618C199.473 133.382 199.17 131.944 199.17 131.944H195.959H181.113C181.113 131.944 180.809 133.382 180.338 135.618H196.793C198.605 143.719 201.229 156.197 200.711 158.137C199.982 160.916 187.346 165.776 175.652 161.979C176.297 165.009 184.471 166.163 190.145 166.041C196.05 166.169 204.688 164.912 204.688 161.586C204.688 158.775 201.458 142.916 199.943 135.618Z" fill="#EF2D2E"/>
<path d="M200.713 133.437H179.573V128.611H200.713V133.437Z" fill="#F04242"/>
<path d="M196.572 151.245H180.486V144.045H196.572V151.245Z" fill="white"/>
<path d="M138.448 120.617L124.92 121.444C124.92 121.444 118.88 91.2462 122.543 82.5896C123.093 81.2812 123.867 80.4679 124.92 80.3208C129.055 79.7476 132.524 90.4954 134.909 101.034C137.155 110.922 138.448 120.617 138.448 120.617Z" fill="#FAB663"/>
<path d="M130.846 92.4759C128.595 90.8981 125.982 89.8409 123.268 89.4082C125.405 91.5071 127.854 92.6223 130.846 92.4759Z" fill="#F7923D"/>
<path d="M131.654 100.171C129.404 98.5931 126.792 97.5359 124.077 97.1032C126.214 99.2021 128.663 100.317 131.654 100.171Z" fill="#F7923D"/>
<path d="M132.532 108.214C130.281 106.636 127.669 105.579 124.955 105.146C127.092 107.245 129.54 108.36 132.532 108.214Z" fill="#F7923D"/>
<path d="M134.909 101.034C134.561 99.8722 134.235 98.7031 133.903 97.5417C132.904 94.1038 131.773 90.6268 129.691 87.7152C127.941 85.2838 125.416 83.2786 122.544 82.5896C123.093 81.2812 123.868 80.4679 124.92 80.3208C129.055 79.7476 132.524 90.4954 134.909 101.034Z" fill="#F7923D"/>
<path d="M144.633 163.255L138.885 111.643L121.002 113.144L126.451 163.255H144.633Z" fill="#C07E53"/>
<path d="M158.437 143.275C158.301 143.773 157.649 144.153 156.88 144.437C156.887 140.235 156.889 136.096 156.884 132.927C157.845 133.076 158.684 133.257 158.761 133.447C158.946 133.911 158.807 141.917 158.437 143.275ZM161.029 130.933C160.575 130.22 158.624 129.916 156.873 129.788C156.865 128.275 156.851 127.336 156.832 127.231C156.709 126.552 149.304 121.8 149.304 121.8V117.11H139.307V122.294C139.307 122.294 132.395 127.231 131.902 128.464C131.408 129.699 131.902 163.268 131.902 163.268H156.832C156.832 163.268 156.858 155.817 156.874 147.692C158.773 147.254 160.894 146.697 161.029 146.36C161.275 145.743 161.892 132.29 161.029 130.933Z" fill="#D1F0FC"/>
<path d="M150.754 119.24H137.888V113.408H150.754V119.24Z" fill="#363950"/>
<path d="M198.561 209.604H111.931C111.446 209.604 110.986 209.385 110.68 209.009C110.374 208.632 110.254 208.137 110.354 207.663L119.545 163.773C119.727 162.902 120.581 162.345 121.453 162.526C122.324 162.708 122.882 163.563 122.7 164.433L113.915 206.381H198.561C199.45 206.381 200.173 207.102 200.173 207.993C200.173 208.883 199.45 209.604 198.561 209.604Z" fill="#BCBEBC"/>
<path d="M113.309 107.349C112.564 107.349 111.895 106.83 111.734 106.073L110.013 97.975L93.4254 95.4974C92.5451 95.366 91.9381 94.5455 92.0695 93.6652C92.2009 92.7849 93.0214 92.1799 93.9017 92.3093L111.596 94.9522C112.26 95.0517 112.793 95.5534 112.933 96.2111L114.886 105.403C115.072 106.273 114.516 107.129 113.645 107.313C113.532 107.338 113.419 107.349 113.309 107.349Z" fill="#363950"/>
<path d="M122.538 162.523L202.727 164.299L210.244 121.343L115.191 107.638L122.538 162.523ZM204.076 167.553L204.04 167.553L121.088 165.715C120.293 165.697 119.631 165.104 119.525 164.317L111.713 105.951C111.646 105.451 111.817 104.947 112.177 104.592C112.536 104.237 113.041 104.069 113.54 104.142L212.349 118.389C212.78 118.452 213.167 118.686 213.423 119.038C213.679 119.391 213.781 119.834 213.706 120.262L205.663 166.22C205.528 166.992 204.857 167.553 204.076 167.553Z" fill="#BCBEBC"/>
<path d="M196.662 149.314L186.266 149.18L187.481 130.834L199.06 131.382L196.662 149.314ZM174.632 149.031L175.179 130.251L186.193 130.773L184.975 149.164L174.632 149.031ZM164.662 148.903V129.754L173.891 130.191L173.342 149.014L164.662 148.903ZM153.34 148.758L153.163 129.21L163.372 129.693V148.887L153.34 148.758ZM141.852 148.61L141.107 128.639L151.873 129.149L152.05 148.741L141.852 148.61ZM131.235 148.474L129.343 128.082L139.814 128.578L140.561 148.594L131.235 148.474ZM210.175 130.616L200.524 130.16L202.079 118.53C202.126 118.178 201.879 117.853 201.525 117.806C201.173 117.759 200.848 118.007 200.801 118.359L199.232 130.099L187.567 129.546L188.429 116.519C188.453 116.163 188.184 115.856 187.829 115.833C187.474 115.807 187.167 116.078 187.142 116.433L186.278 129.486L175.216 128.963L175.652 114.029C175.663 113.673 175.382 113.376 175.026 113.365C174.678 113.343 174.373 113.635 174.363 113.991L173.929 128.901L164.662 128.463V113.049C164.662 112.693 164.373 112.404 164.017 112.404C163.661 112.404 163.372 112.693 163.372 113.049V128.402L153.151 127.918L153.002 111.362C152.999 111.008 152.711 110.723 152.357 110.723H152.351C151.996 110.726 151.709 111.018 151.712 111.373L151.861 127.857L141.058 127.346L140.393 109.526C140.38 109.17 140.077 108.887 139.725 108.906C139.369 108.919 139.092 109.218 139.105 109.574L139.766 127.285L129.223 126.786L127.445 107.624C127.412 107.269 127.096 107.01 126.744 107.042C126.389 107.074 126.128 107.388 126.161 107.743L127.922 126.724L116.161 126.168C115.803 126.159 115.504 126.426 115.487 126.781C115.471 127.137 115.745 127.439 116.1 127.456L128.043 128.021L129.939 148.457L119.104 148.318H119.096C118.744 148.318 118.456 148.601 118.451 148.954C118.446 149.31 118.731 149.603 119.087 149.607L130.058 149.748L131.395 164.163C131.427 164.497 131.708 164.748 132.037 164.748L132.097 164.745C132.452 164.713 132.712 164.398 132.68 164.044L131.355 149.765L140.608 149.883L141.157 164.586C141.17 164.933 141.456 165.206 141.801 165.206L141.826 165.206C142.181 165.192 142.459 164.893 142.446 164.538L141.899 149.9L152.061 150.031L152.189 164.109C152.192 164.463 152.48 164.748 152.834 164.748H152.839C153.195 164.745 153.482 164.454 153.478 164.098L153.351 150.047L163.372 150.176V165.264C163.372 165.62 163.661 165.909 164.017 165.909C164.373 165.909 164.662 165.62 164.662 165.264V150.193L173.305 150.304L172.87 165.245C172.859 165.601 173.139 165.898 173.495 165.908L173.514 165.909C173.861 165.909 174.148 165.633 174.158 165.283L174.594 150.32L184.89 150.452L183.895 165.466C183.871 165.821 184.14 166.128 184.496 166.152L184.539 166.153C184.876 166.153 185.159 165.892 185.181 165.551L186.181 150.469L196.49 150.602L194.477 165.657C194.43 166.011 194.677 166.335 195.03 166.382L195.117 166.387C195.435 166.387 195.711 166.152 195.755 165.828L197.789 150.618L206.842 150.734H206.85C207.202 150.734 207.49 150.451 207.495 150.098C207.499 149.742 207.214 149.449 206.858 149.444L197.96 149.331L200.352 131.443L210.114 131.905L210.145 131.905C210.487 131.905 210.773 131.637 210.789 131.291C210.806 130.935 210.531 130.633 210.175 130.616Z" fill="#BCBEBC"/>
<path d="M133.535 225.137C133.535 229.691 129.843 233.384 125.289 233.384C120.734 233.384 117.041 229.691 117.041 225.137C117.041 220.581 120.734 216.89 125.289 216.89C129.843 216.89 133.535 220.581 133.535 225.137Z" fill="#363950"/>
<path d="M123.446 208.793L125.151 219.955L122.283 226.001L125.151 227.939L133.522 219.491L134.065 208.793H123.446Z" fill="#DCDDDA"/>
<path d="M126.237 225.304C126.237 225.946 125.715 226.466 125.074 226.466C124.431 226.466 123.911 225.946 123.911 225.304C123.911 224.662 124.431 224.142 125.074 224.142C125.715 224.142 126.237 224.662 126.237 225.304Z" fill="#363950"/>
<path d="M137.641 211.051H119.866V205.417H137.641V211.051Z" fill="#363950"/>
<path d="M187.689 225.137C187.689 229.691 183.996 233.384 179.442 233.384C174.887 233.384 171.195 229.691 171.195 225.137C171.195 220.581 174.887 216.89 179.442 216.89C183.996 216.89 187.689 220.581 187.689 225.137Z" fill="#363950"/>
<path d="M177.189 208.793L178.895 219.955L176.027 226.001L178.895 227.939L187.267 219.491L187.81 208.793H177.189Z" fill="#DCDDDA"/>
<path d="M179.981 225.304C179.981 225.946 179.46 226.466 178.817 226.466C178.175 226.466 177.655 225.946 177.655 225.304C177.655 224.662 178.175 224.142 178.817 224.142C179.46 224.142 179.981 224.662 179.981 225.304Z" fill="#363950"/>
<path d="M191.385 211.051H173.61V205.417H191.385V211.051Z" fill="#363950"/>
<path d="M60.1913 41.2337C60.1913 41.2337 71.9488 44.9833 73.0972 46.5936C74.2462 48.2039 82.7544 76.3527 82.7544 76.3527L65.708 79.9812L60.1913 41.2337Z" fill="#DCDDDA"/>
<path d="M83.8729 73.9213L85.3375 79.0886L70.0282 82.0775L69.5356 77.5017L83.8729 73.9213Z" fill="white"/>
<path d="M37.4225 230.447C37.6782 229.967 37.8513 229.316 37.4785 228.665C36.3893 226.767 32.0835 220.206 31.4198 217.767C30.9045 215.873 31.414 212.937 31.6677 211.719L20.1184 204.178C17.3259 206.54 12.7657 211.687 11.8164 212.768L37.4225 230.447Z" fill="#DD3464"/>
<path d="M35.6146 232.969L10.0078 215.29L11.8166 212.768L37.4227 230.447L35.6146 232.969Z" fill="white"/>
<path d="M28.7567 216.985L28.6422 217.036C28.3585 217.171 28.0345 217.455 28.2362 217.793C28.339 217.965 28.5296 218.067 28.715 218.149C29.3552 218.431 30.0449 218.551 30.7391 218.618C31.4854 218.689 32.2844 218.761 33.0007 218.489C33.7418 218.207 33.6032 217.371 32.9051 217.073C31.6982 216.56 29.9883 216.456 28.7567 216.985Z" fill="white"/>
<path d="M29.7117 219.664L29.5965 219.715C29.3128 219.849 28.9888 220.134 29.1905 220.471C29.2933 220.644 29.4839 220.746 29.67 220.827C30.3102 221.109 30.9993 221.23 31.6941 221.297C32.4404 221.369 33.2394 221.44 33.9557 221.168C34.6961 220.886 34.5575 220.05 33.8601 219.753C32.6532 219.238 30.9427 219.135 29.7117 219.664Z" fill="white"/>
<path d="M31.4433 222.191L31.3288 222.243C31.0445 222.377 30.7205 222.661 30.9222 222.999C31.025 223.171 31.2156 223.273 31.4017 223.355C32.0419 223.637 32.7316 223.757 33.4258 223.824C34.1721 223.896 34.9711 223.967 35.6874 223.695C36.4278 223.413 36.2899 222.577 35.5918 222.28C34.3848 221.766 32.6743 221.662 31.4433 222.191Z" fill="white"/>
<path d="M63.286 170.752L47.7613 155.751L16.8857 202.849L33.4963 214.362L63.286 170.752Z" fill="#282A3E"/>
<path d="M49.7332 117.235C50.8152 128.937 52.2387 147.919 50.5165 152.038C50.4625 152.168 50.05 152.856 49.374 153.951L66.7751 169.357C66.7751 169.357 73.0016 159.162 73.7531 155.315C75.4382 146.682 71.9255 123.839 71.0393 117.235H49.7332Z" fill="#282A3E"/>
<path d="M72.0639 166.042L56.2152 117.235H29.7737C31.8668 122.419 48.5306 163.7 52.7923 173.941L58.4026 220.341L76.237 216.637L75.7972 211.327L72.0639 166.042Z" fill="#363950"/>
<path d="M61.0759 165.679C61.6069 167.62 62.8801 169.348 64.5763 170.43C65.7006 171.148 67.2563 171.551 68.3142 170.739C69.2862 169.993 69.3916 168.58 69.2908 167.359C69.1613 165.802 68.8327 164.262 68.3155 162.787C67.8464 161.452 67.158 160.096 65.9407 159.375C61.6205 156.812 60.2926 162.814 61.0759 165.679Z" fill="#52546E"/>
<path d="M91.5777 226.551C91.4384 226.027 91.1209 225.431 90.4 225.195C88.2933 224.505 80.6139 222.481 78.4526 221.11C76.7746 220.047 75.1435 217.535 74.4974 216.466L60.7795 218.488C60.326 222.079 60.4692 228.897 60.505 230.323L91.5777 226.551Z" fill="#DD3464"/>
<path d="M91.9634 229.611L60.8907 233.384L60.5049 230.323L91.5776 226.551L91.9634 229.611Z" fill="white"/>
<path d="M75.9438 222.285L75.8944 222.399C75.776 222.686 75.7304 223.11 76.111 223.228C76.3049 223.287 76.5164 223.237 76.7096 223.175C77.3765 222.962 77.9705 222.598 78.5307 222.189C79.1332 221.75 79.7741 221.277 80.1182 220.603C80.4741 219.906 79.7994 219.378 79.0792 219.618C77.8326 220.032 76.4949 221.082 75.9438 222.285Z" fill="white"/>
<path d="M78.4851 223.641L78.435 223.755C78.3172 224.042 78.271 224.466 78.6516 224.584C78.8462 224.643 79.0563 224.593 79.2502 224.531C79.9171 224.318 80.5111 223.954 81.0713 223.546C81.6732 223.106 82.314 222.633 82.6589 221.959C83.0148 221.263 82.3401 220.734 81.6192 220.974C80.3732 221.388 79.0355 222.438 78.4851 223.641Z" fill="white"/>
<path d="M81.4968 224.373L81.4473 224.487C81.3295 224.774 81.2834 225.198 81.664 225.315C81.8585 225.375 82.0687 225.325 82.2625 225.263C82.9294 225.05 83.5235 224.686 84.0837 224.278C84.6855 223.838 85.3264 223.365 85.6706 222.691C86.0271 221.994 85.3524 221.466 84.6315 221.706C83.3855 222.12 82.0478 223.17 81.4968 224.373Z" fill="white"/>
<path d="M61.7866 212.771C61.7866 212.771 57.1814 175.114 56.1346 171.102C55.1996 167.525 38.7484 126.182 35.1869 117.235H29.7737C31.8668 122.419 48.5306 163.7 52.7923 173.941L58.4026 220.341L76.237 216.637L75.7972 211.327L61.7866 212.771Z" fill="#282A3E"/>
<path d="M44.4677 39.8121C44.4677 39.8121 35.8723 41.8485 34.4936 42.939C33.1149 44.0294 29.1103 110.016 30.8065 117.235C30.8065 117.235 60.1739 118.369 71.5378 116.625C71.5378 116.625 71.1442 53.1447 69.651 49.1232C68.1571 45.1017 60.1915 41.2337 60.1915 41.2337L49.946 44.7575L44.4677 39.8121Z" fill="#DCDDDA"/>
<path d="M47.2359 38.8485L44.4675 39.812C44.4675 39.812 47.3244 49.7166 53.32 52.1681L58.8939 47.5942L64.3325 50.8467C64.3325 50.8467 60.7658 42.0762 60.1913 41.2337L57.3422 40.7001L47.2359 38.8485Z" fill="white"/>
<path d="M47.7113 41.9396C47.9696 42.1218 58.8937 47.5942 58.8937 47.5942C58.8937 47.5942 57.9021 43.2226 57.3953 40.9435C57.2411 40.2376 57.1298 39.732 57.1103 39.6201C56.9502 38.7014 57.0413 34.5862 57.0413 34.5862L46.4985 31.823C46.4985 31.823 46.6957 33.8633 46.9332 36.1119C47.2201 38.8244 47.5688 41.8394 47.7113 41.9396Z" fill="#F68672"/>
<path d="M46.9332 36.1119C49.9885 37.609 56.7147 40.8765 57.3406 40.9416L57.3953 40.9435C57.2411 40.2376 57.1298 39.7321 57.1103 39.6201C56.9502 38.7015 57.0413 34.5862 57.0413 34.5862L46.4985 31.823C46.4985 31.823 46.6957 33.8634 46.9332 36.1119Z" fill="#F36269"/>
<path d="M45.2223 32.3968C45.2223 32.3968 45.5893 33.0592 46.8482 33.8334H46.8502C47.1072 33.9928 47.4039 34.1568 47.7415 34.3207C49.0298 34.9427 60.555 37.6682 62.1686 37.1601C63.7828 36.6519 64.3501 30.7026 64.3319 30.091C64.2246 26.3349 63.7112 14.7596 63.7112 14.7596C57.4854 3.13284 44.0596 12.0562 42.6185 13.5559C41.1774 15.0563 45.2223 32.3968 45.2223 32.3968Z" fill="#F68672"/>
<path d="M46.8501 33.8334C47.1071 33.9928 47.4038 34.1568 47.7415 34.3207C49.0297 34.9427 60.5549 37.6682 62.1685 37.1601C63.7827 36.6519 64.3501 30.7026 64.3318 30.091C63.7378 32.7638 63.1763 36.4145 61.987 36.5081C60.1958 36.6506 48.2717 34.2914 46.8501 33.8334Z" fill="#F9AA7F"/>
<path d="M63.1964 19.3075C63.1964 19.3075 61.5594 16.3855 60.3122 17.2925C59.0649 18.1995 59.549 18.3758 59.549 18.3758L63.1964 19.3075Z" fill="#353638"/>
<path d="M47.1033 18.1377C47.1033 18.1377 50.7917 13.8682 52.3096 15.3784C53.1958 16.2593 52.5829 16.8624 52.5829 16.8624L47.1033 18.1377Z" fill="#353638"/>
<path d="M49.9901 23.3915C50.1885 24.5307 50.925 25.3544 51.6349 25.2308C52.3447 25.1072 52.7592 24.0831 52.5601 22.9432C52.3616 21.8033 51.6251 20.9803 50.9153 21.1039C50.2055 21.2275 49.791 22.2516 49.9901 23.3915Z" fill="#121414"/>
<path d="M48.5614 22.4533C48.5614 22.4533 49.1372 23.0837 49.9759 23.2639C50.8145 23.4442 51.5979 23.1065 51.5979 23.1065C51.5979 23.1065 51.0227 22.4767 50.1841 22.2965C49.3454 22.1156 48.5614 22.4533 48.5614 22.4533Z" fill="white"/>
<path d="M62.2752 22.0466C62.4248 22.9061 62.1125 23.6778 61.5777 23.7708C61.0429 23.8645 60.4879 23.2438 60.3376 22.3843C60.188 21.5255 60.5003 20.7532 61.0357 20.6601C61.5706 20.5671 62.1255 21.1878 62.2752 22.0466Z" fill="#121414"/>
<path d="M62.9754 21.1468C62.9754 21.1468 62.7151 21.6654 62.1972 21.9874C61.6793 22.3108 61.0996 22.3153 61.0996 22.3153C61.0996 22.3153 61.3599 21.7974 61.8778 21.4747C62.3957 21.152 62.9754 21.1468 62.9754 21.1468Z" fill="white"/>
<path d="M54.1613 32.5921C55.2205 32.9115 56.417 32.7391 57.3422 32.1334C57.0832 32.6994 56.6493 33.0826 56.0318 33.1672C55.4144 33.2505 54.6544 32.9727 54.1613 32.5921Z" fill="#F14568"/>
<path d="M62.1497 26.9764C62.3976 27.3987 63.382 27.2809 64.3488 26.7136C65.3157 26.1456 65.8986 25.3434 65.6507 24.9211C65.4035 24.4988 64.4184 24.6166 63.4516 25.1846C62.4848 25.752 61.9018 26.5542 62.1497 26.9764Z" fill="#F36269"/>
<path d="M48.7701 27.1365C48.7122 27.849 49.9874 28.5328 51.6179 28.6655C53.2477 28.7976 54.616 28.3272 54.6739 27.6154C54.7318 26.9036 53.4572 26.2191 51.8267 26.0871C50.1963 25.955 48.828 26.4247 48.7701 27.1365Z" fill="#F36269"/>
<path d="M51.3381 29.9296C51.3381 29.9296 51.4214 30.0103 51.5665 30.1502C51.7135 30.2953 51.9465 30.4827 52.2568 30.687C52.871 31.0975 53.8509 31.5217 55.0018 31.6096C56.1528 31.6916 57.184 31.4163 57.8522 31.1001C58.1886 30.9433 58.4469 30.7924 58.6135 30.6707C58.7774 30.5536 58.8718 30.4859 58.8718 30.4859C58.8718 30.4859 58.7631 30.5263 58.5744 30.5959C58.3877 30.672 58.1073 30.7586 57.7624 30.847C57.0728 31.0266 56.1033 31.1489 55.0409 31.0735C53.9797 30.9928 53.0382 30.7286 52.3817 30.4495C52.0545 30.3116 51.7897 30.1847 51.6159 30.0826C51.4396 29.9856 51.3381 29.9296 51.3381 29.9296Z" fill="#F14568"/>
<path d="M56.6676 26.5945L56.1315 25.2464C56.1315 25.2464 58.123 25.9914 59.2721 25.5314V26.834H58.4295L56.6676 26.5945Z" fill="#F36269"/>
<path d="M59.581 27.119C58.609 27.2764 57.5452 27.0409 56.6675 26.5945C57.4326 26.4996 58.2075 26.4852 58.9753 26.551C58.8991 24.2907 58.4632 21.9107 56.9687 20.2145C57.9902 20.9777 58.7625 22.0369 59.162 23.2477C59.5615 24.4585 59.6383 25.845 59.581 27.119Z" fill="#F14568"/>
<path d="M46.876 32.5582C44.6372 32.769 42.8004 31.7391 41.7484 30.7924C41.5115 30.579 41.315 30.3688 41.1621 30.1795C40.3319 29.145 39.4588 25.21 40.9221 24.005C41.9481 23.1612 42.9397 23.953 43.4413 24.5041V24.506C43.6554 24.7396 43.7803 24.9302 43.7803 24.9302L46.876 32.5582Z" fill="#F9AA7F"/>
<path d="M46.8758 32.5582C44.637 32.769 42.8003 31.7391 41.7482 30.7924C41.6545 30.6935 41.5706 30.5979 41.4977 30.5061C40.6675 29.4723 39.7944 25.5373 41.2583 24.3329C42.0885 23.6485 42.8966 24.0382 43.4411 24.5041V24.506C43.6552 24.7396 43.7801 24.9302 43.7801 24.9302L46.8758 32.5582Z" fill="#F68672"/>
<path d="M40.9594 27.2451C40.9334 27.577 41.0427 27.8977 41.2014 28.1931C41.8774 29.4469 43.3843 30.2309 44.8215 30.9524C44.3251 30.374 44.057 29.6694 44.0115 28.9459C43.9959 28.6941 44.0063 28.4384 43.9653 28.1905C43.8007 27.1905 41.1136 25.2854 40.9594 27.2451Z" fill="#F36269"/>
<path d="M45.527 31.2198L45.4477 31.1912C45.3963 31.1717 45.3156 31.1476 45.2212 31.1047C45.0306 31.0208 44.7632 30.8789 44.4939 30.6473C44.2258 30.4157 43.9629 30.0904 43.7931 29.6798C43.6331 29.2699 43.5647 28.7709 43.7098 28.2536C43.7235 28.1886 43.7476 28.1255 43.7723 28.0623L43.7899 28.0155L43.7925 28.0096L43.7918 28.0116L43.7931 28.0103H43.7938L43.7886 28.0038L43.7612 27.9693L43.7046 27.901L43.5908 27.7683C43.4359 27.5945 43.2739 27.4338 43.1113 27.2868C42.948 27.1398 42.782 27.0077 42.6207 26.888C42.4574 26.7702 42.3019 26.6596 42.1522 26.5841C42.0032 26.5073 41.8477 26.4677 41.7085 26.4735C41.5699 26.482 41.447 26.5353 41.3682 26.5932C41.2882 26.6518 41.2498 26.7162 41.2368 26.7617L41.2257 26.8327L41.2173 26.7604C41.2179 26.7129 41.2414 26.6368 41.3175 26.5568C41.3929 26.4787 41.5185 26.3961 41.6974 26.3603C41.8764 26.3271 42.0807 26.3538 42.27 26.4208C42.4619 26.4885 42.6396 26.5841 42.8276 26.6895C43.015 26.7975 43.2076 26.9211 43.3969 27.0636C43.5856 27.2061 43.7723 27.3668 43.9473 27.5458L44.0761 27.683L44.1393 27.7546L44.2238 27.8555L44.2824 27.927L44.2525 28.0135L44.2069 28.1378L44.1542 28.3031C44.028 28.752 44.0592 29.1938 44.1646 29.5764C44.2785 29.957 44.4698 30.281 44.6767 30.5269C44.8849 30.7742 45.1035 30.9459 45.2642 31.0572C45.3442 31.1131 45.4138 31.1489 45.4581 31.1776L45.527 31.2198Z" fill="#D03B58"/>
<path d="M37.8872 21.7734L38.2952 22.1377L40.6712 24.2692C42.8743 23.562 45.2647 27.3759 45.2647 27.3759L45.4319 16.4942C48.1762 16.0986 56.7756 11.8942 56.7756 11.8942L63.8447 17.7512C63.8447 17.7512 64.3815 16.936 64.9787 15.7206C66.0698 13.487 67.347 9.90723 65.7868 7.60856C63.3808 4.05743 54.0488 2.44711 54.0488 2.44711L50.5901 4.65795C50.5901 4.65795 42.1898 6.19084 40.0727 8.19152C37.9555 10.1922 37.8872 21.7734 37.8872 21.7734Z" fill="#121414"/>
<path d="M37.8872 21.7734L38.2952 22.1377C39.6921 21.6621 40.977 20.8417 42.0024 19.7727C42.5171 20.8417 43.0337 21.9165 43.5483 22.9848C44.2809 20.1292 44.3948 17.1337 43.914 14.2319C48.9908 14.6301 54.1881 11.8727 56.7034 7.43742C60.2057 9.29171 63.1244 12.226 64.9787 15.7206C65.4042 14.8585 65.846 13.7941 66.1512 12.6841C66.632 10.9124 66.7445 9.01975 65.7868 7.60854C63.3808 4.05741 54.0488 2.4471 54.0488 2.4471L50.5901 4.65793C50.5901 4.65793 42.1898 6.19082 40.0727 8.1915C38.8879 9.31253 38.3407 13.4369 38.0974 16.8488C37.9009 19.5326 37.8872 21.7734 37.8872 21.7734Z" fill="#353638"/>
<path d="M38.0972 16.8488L38.1037 16.8475C39.5318 16.6627 40.4349 15.2593 41.1356 14.0049C41.4199 14.891 41.7121 15.7818 41.9964 16.6679C43.0127 14.7251 43.4811 12.4987 43.3334 10.3041C48.383 11.6457 54.1592 9.59623 57.2302 5.36975C61.1138 6.26046 64.4639 9.08875 66.151 12.6841C66.6318 10.9125 66.7443 9.01979 65.7866 7.60857C63.3806 4.05744 54.0486 2.44713 54.0486 2.44713L50.5899 4.65796C50.5899 4.65796 42.1896 6.19085 40.0725 8.19153C38.8877 9.31257 38.3405 13.4369 38.0972 16.8488Z" fill="#4A4C4E"/>
<path d="M11.6353 83.8213C11.6353 83.8213 6.81027 118.934 8.6483 122.323C10.4863 125.711 21.2191 128.009 26.1932 128.239C31.1672 128.469 42.4302 123.413 42.8883 121.115C43.3463 118.817 40.086 83.8213 40.086 83.8213H11.6353Z" fill="#F46D3C"/>
<path d="M48.4971 99.9002C48.0781 101.071 40.3727 97.2827 40.3727 97.2827L38.633 98.9145L41.7046 100.799L44.3292 105.347C44.3292 105.347 43.7391 106.18 42.9551 107.157C42.8582 107.28 42.7567 107.403 42.6545 107.528C42.1795 108.107 41.6551 108.703 41.1587 109.184L41.0175 109.325C40.7644 109.56 40.5224 109.762 40.3031 109.912C40.0572 110.078 39.8379 110.179 39.6558 110.191L36.8899 107.175C36.8899 107.175 31.2568 107.511 30.4851 107.138C30.1787 106.989 29.3836 105.728 28.5359 104.263C28.1312 103.559 26.5755 100.81 26.1936 100.112L28.2216 97.0094L32.8092 95.9463C33.3466 95.8012 34.0617 95.6223 34.8652 95.4512V95.4486C35.2601 95.3634 35.6765 95.2814 36.1027 95.2046C37.6486 94.9274 39.3298 94.742 40.6519 94.8845C41.2127 94.9424 41.7078 95.0634 42.0989 95.2619C44.8003 96.6249 48.9155 98.733 48.4971 99.9002Z" fill="#F68672"/>
<path d="M41.1584 109.184L41.0172 109.325C40.9189 109.185 40.7934 109.001 40.6398 108.78C40.2898 108.281 39.8057 107.613 39.2683 106.902C38.7257 106.194 38.1935 105.589 37.7419 105.179C37.6274 105.077 37.5233 104.985 37.4309 104.902C37.3314 104.829 37.2474 104.764 37.1752 104.712C37.0353 104.602 36.9534 104.539 36.9534 104.539C36.9534 104.539 37.0542 104.558 37.2383 104.602C37.3288 104.624 37.4426 104.652 37.5721 104.689C37.6957 104.737 37.835 104.792 37.9924 104.859C38.6053 105.129 39.3835 105.677 39.9794 106.453C40.5676 107.232 40.8819 108.038 41.0393 108.627C41.0966 108.846 41.1337 109.032 41.1584 109.184Z" fill="#D03B58"/>
<path d="M42.9548 107.157C42.8578 107.28 42.7563 107.403 42.6542 107.528L42.5911 107.442C42.241 106.942 41.7576 106.274 41.2202 105.565C40.6769 104.855 40.1447 104.25 39.6938 103.84C39.5793 103.738 39.4772 103.647 39.3854 103.567C39.2859 103.49 39.1987 103.427 39.1297 103.374C38.9866 103.264 38.9072 103.203 38.9072 103.203C38.9072 103.203 39.0055 103.222 39.1896 103.264C39.28 103.287 39.3939 103.314 39.5234 103.352C39.647 103.398 39.7888 103.456 39.9437 103.521C40.5598 103.793 41.338 104.341 41.9307 105.117C42.4785 105.839 42.7889 106.585 42.9548 107.157Z" fill="#D03B58"/>
<path d="M16.5531 88.8877L22.1706 75.4333H8.88021C6.21979 82.7464 3.07855 92.4629 4.12997 95.0257C5.873 99.275 28.5357 104.263 28.5357 104.263L30.1382 96.5651L16.5531 88.8877Z" fill="#F68672"/>
<path d="M37.3375 41.7568C37.3375 41.7568 30.0569 43.5349 26.2241 46.6157C22.3912 49.6977 6.19642 76.7886 5.88477 78.7047L21.6111 83.8212L32.9763 69.6447L37.3375 41.7568Z" fill="#DCDDDA"/>
<path d="M3.33862 82.7893L5.19681 76.3526L24.3891 81.9585L21.2947 87.2962L3.33862 82.7893Z" fill="white"/>
<path d="M71.714 69.4788C71.6834 68.8587 71.5455 68.2608 71.5331 67.6388C71.5195 66.9173 71.5084 66.1957 71.4824 65.4735C71.4362 64.182 71.2547 62.8996 71.1304 61.6133C70.7355 57.5319 70.6105 53.2853 68.4394 49.6671C68.3984 49.5995 68.3008 49.6587 68.3346 49.7283C69.2071 51.5188 69.5897 53.6002 69.8747 55.5612C70.1785 57.6536 70.347 59.8059 70.3887 61.9198C70.4134 63.1566 70.4206 64.3941 70.496 65.629C70.5338 66.2471 70.5669 66.8659 70.5917 67.4846C70.6164 68.119 70.511 68.6987 70.4609 69.3259C70.3678 70.4853 70.3835 71.6408 70.429 72.8016C70.4778 74.0364 70.671 75.2277 70.4772 76.462C70.3893 77.0261 71.2325 77.2831 71.3516 76.7034C71.5845 75.5719 71.6541 74.3767 71.6431 73.2238C71.6314 71.9753 71.7739 70.7273 71.714 69.4788Z" fill="#BCBEBC"/>
<path d="M60.6317 54.351C60.6317 55.1018 60.0228 55.7102 59.2719 55.7102C58.5211 55.7102 57.9121 55.1018 57.9121 54.351C57.9121 53.5995 58.5211 52.9912 59.2719 52.9912C60.0228 52.9912 60.6317 53.5995 60.6317 54.351Z" fill="#52546E"/>
<path d="M60.6317 59.789C60.6317 60.5398 60.0228 61.1488 59.2719 61.1488C58.5211 61.1488 57.9121 60.5398 57.9121 59.789C57.9121 59.0381 58.5211 58.4298 59.2719 58.4298C60.0228 58.4298 60.6317 59.0381 60.6317 59.789Z" fill="#52546E"/>
<path d="M60.6317 65.2269C60.6317 65.9784 60.0228 66.5867 59.2719 66.5867C58.5211 66.5867 57.9121 65.9784 57.9121 65.2269C57.9121 64.4767 58.5211 63.8678 59.2719 63.8678C60.0228 63.8678 60.6317 64.4767 60.6317 65.2269Z" fill="#52546E"/>
<path d="M97.7566 102.772C96.1567 100.805 95.9186 97.7004 95.9186 97.7004C96.3278 97.3296 96.8529 97.0043 97.4469 96.7278C97.6935 96.6054 97.9544 96.4961 98.2257 96.3927C98.8262 96.165 99.4717 95.9678 100.136 95.8052C100.425 95.7303 100.719 95.6614 101.013 95.5996C101.796 95.4363 102.578 95.3061 103.313 95.2085C103.628 95.1617 103.933 95.1252 104.225 95.0895C105.02 95.0016 105.714 94.947 106.235 94.9131C106.838 94.8735 107.204 94.863 107.204 94.863C108.082 97.016 107.581 100.661 107.581 100.661C106.868 101.191 106.037 101.595 105.17 101.897C101.764 103.091 97.7566 102.772 97.7566 102.772Z" fill="#F68672"/>
<path d="M104.485 98.7883C104.485 98.7883 104.34 98.4968 104.156 98.0524C103.972 97.6042 103.739 97.014 103.56 96.3504C103.45 95.9477 103.372 95.5592 103.313 95.2085C103.628 95.1617 103.933 95.1253 104.225 95.0895C104.383 95.3738 104.523 95.7024 104.622 96.0628C104.819 96.798 104.789 97.5014 104.702 97.9971C104.615 98.4923 104.485 98.7883 104.485 98.7883Z" fill="#D03B58"/>
<path d="M101.382 99.1487C101.382 99.1487 101.219 98.8813 101.017 98.4708C100.815 98.057 100.564 97.5046 100.377 96.8748C100.267 96.5013 100.194 96.1357 100.136 95.8051C100.425 95.7303 100.719 95.6614 101.013 95.5995C101.176 95.8767 101.33 96.2007 101.436 96.5644C101.636 97.2495 101.626 97.9151 101.561 98.3862C101.492 98.8605 101.382 99.1487 101.382 99.1487Z" fill="#D03B58"/>
<path d="M98.7456 100.322C98.7456 100.322 98.5718 100.046 98.3552 99.61C98.1411 99.1702 97.8776 98.5788 97.6883 97.9034C97.5725 97.4903 97.4963 97.0882 97.4469 96.7278C97.6935 96.6054 97.9544 96.4961 98.2257 96.3927C98.4261 96.7303 98.618 97.1416 98.7475 97.6061C98.9499 98.3277 98.9518 99.0186 98.8985 99.515C98.8451 100.015 98.7456 100.322 98.7456 100.322Z" fill="#D03B58"/>
<path d="M105.17 101.897C105.639 101.27 106.043 100.606 106.252 99.8579C106.446 99.1735 106.465 98.4545 106.462 97.7466C106.46 96.9366 106.489 96.0673 106.344 95.2664C106.328 95.1617 106.283 95.042 106.235 94.9131C106.838 94.8734 107.205 94.863 107.205 94.863C108.082 97.016 107.581 100.661 107.581 100.661C106.868 101.191 106.037 101.595 105.17 101.897Z" fill="#F9AA7F"/>
<path d="M29.7884 83.8212C29.7884 83.8212 30.4638 64.6648 30.3942 62.1371C30.3252 59.6094 24.9634 46.0516 24.9634 46.0516C24.9634 46.0516 26.5698 44.2136 27.6811 44.1368C27.6811 44.1368 33.4651 60.1455 33.3122 62.1371C33.1587 64.128 32.0865 83.8212 32.0865 83.8212H29.7884Z" fill="#F46D3C"/>
<path d="M79.3772 32.8165L89.1444 23.8411L92.3058 30.5139L79.3772 32.8165Z" fill="white"/>
<path d="M75.1847 31.8165L74.2042 23.5411L78.756 24.128L75.1847 31.8165Z" fill="white"/>
<path d="M79.8019 38.6162L88.6485 38.6305L88.2535 42.8225L79.8019 38.6162Z" fill="white"/>
</svg>
