<svg width="14" height="54" viewBox="0 0 14 54" fill="none" xmlns="http://www.w3.org/2000/svg">
<path d="M13.7813 27C13.7813 28.3412 13.3835 29.6523 12.6384 30.7675C11.8933 31.8826 10.8342 32.7518 9.59508 33.2651C8.35597 33.7783 6.99248 33.9126 5.67705 33.651C4.36161 33.3893 3.15331 32.7434 2.20494 31.7951C1.25656 30.8467 0.610709 29.6384 0.349053 28.323C0.0873968 27.0075 0.221688 25.644 0.734945 24.4049C1.2482 23.1658 2.11737 22.1067 3.23254 21.3616C4.34771 20.6165 5.6588 20.2188 7.00001 20.2188C8.79654 20.2251 10.5177 20.9416 11.788 22.212C13.0584 23.4823 13.7749 25.2035 13.7813 27V27ZM7.00001 14.4063C8.34121 14.4063 9.6523 14.0085 10.7675 13.2634C11.8826 12.5183 12.7518 11.4592 13.2651 10.2201C13.7783 8.98096 13.9126 7.61748 13.651 6.30205C13.3893 4.98661 12.7435 3.77831 11.7951 2.82994C10.8467 1.88156 9.63839 1.23571 8.32296 0.974053C7.00753 0.712397 5.64405 0.846688 4.40493 1.35994C3.16582 1.8732 2.10673 2.74237 1.3616 3.85754C0.616467 4.97271 0.218754 6.2838 0.218754 7.625C0.225136 9.42154 0.941637 11.1427 2.21199 12.413C3.48234 13.6834 5.20347 14.3999 7.00001 14.4063V14.4063ZM7.00001 39.5938C5.6588 39.5938 4.34771 39.9915 3.23254 40.7366C2.11737 41.4817 1.2482 42.5408 0.734945 43.7799C0.221688 45.019 0.0873968 46.3825 0.349053 47.698C0.610709 49.0134 1.25656 50.2217 2.20494 51.1701C3.15331 52.1185 4.36161 52.7643 5.67705 53.026C6.99248 53.2876 8.35597 53.1533 9.59508 52.6401C10.8342 52.1268 11.8933 51.2576 12.6384 50.1425C13.3835 49.0273 13.7813 47.7162 13.7813 46.375C13.7749 44.5785 13.0584 42.8573 11.788 41.587C10.5177 40.3166 8.79654 39.6001 7.00001 39.5938Z" fill="#333333"/>
</svg>
